<svg width="52" height="52" viewBox="0 0 52 52" fill="none" xmlns="http://www.w3.org/2000/svg">
<path d="M35.6215 46.2536L36.818 44.7581C37.8692 43.4441 40.1018 43.55 40.9899 44.9557C42.058 46.6473 44.6966 46.311 45.4283 44.7551C45.4664 44.6743 45.3711 44.8767 45.4526 44.1766C45.5338 43.4766 45.5 43.3167 45.4322 42.9971L41.2655 23.3222C40.2183 18.3776 39.6946 15.9052 37.8935 14.4526C36.0926 13 33.5504 13 28.4665 13H23.5335C18.4495 13 15.9075 13 14.1064 14.4526C12.3053 15.9052 11.7817 18.3776 10.7345 23.3222L6.56782 42.9971C6.50009 43.3167 6.46622 43.4766 6.54754 44.1766C6.62883 44.8767 6.53367 44.6743 6.57172 44.7551C7.30349 46.311 9.94188 46.6473 11.0102 44.9557C11.8983 43.55 14.1307 43.4441 15.182 44.7581L16.3786 46.2536C17.8861 48.1377 21.0344 48.1377 22.542 46.2536L22.7301 46.0183C24.3297 44.0191 27.6703 44.0191 29.2699 46.0183L29.458 46.2536C30.9656 48.1377 34.114 48.1377 35.6215 46.2536Z" stroke="#EE9F28" stroke-width="1.5" stroke-linejoin="round"/>
<path d="M5.38079 20.5833C4.11261 19.266 4.35136 17.5694 4.35136 13.3288C4.35136 9.08831 4.35136 6.96805 5.61953 5.6507C6.8877 4.33334 8.92879 4.33334 13.0109 4.33334H38.9898C43.0718 4.33334 45.113 4.33334 46.3811 5.6507C47.6493 6.96805 47.6493 9.08831 47.6493 13.3288C47.6493 17.5694 47.8865 19.266 46.6184 20.5833" stroke="#EE9F28" stroke-width="1.5" stroke-linecap="round"/>
<path d="M26 21.6667H19.5" stroke="#EE9F28" stroke-width="1.5" stroke-linecap="round" stroke-linejoin="round"/>
<path d="M30.3335 30.3333H17.3335" stroke="#EE9F28" stroke-width="1.5" stroke-linecap="round" stroke-linejoin="round"/>
</svg>
