<svg width="32" height="32" viewBox="0 0 32 32" fill="none" xmlns="http://www.w3.org/2000/svg">
<path d="M22.6654 16C22.6654 19.6819 19.6806 22.6667 15.9987 22.6667C12.3168 22.6667 9.33203 19.6819 9.33203 16C9.33203 12.3181 12.3168 9.33337 15.9987 9.33337C19.6806 9.33337 22.6654 12.3181 22.6654 16Z" stroke="#EE9F28" stroke-width="1.5" stroke-linecap="round" stroke-linejoin="round"/>
<path d="M16.1663 4.33333H15.9996M16.1656 27.6667H15.9989M27.6667 16.1667V16M4.33333 16.1667V16M24.3669 7.86797L24.2491 7.75012M7.86735 24.3667L7.74949 24.2488M24.1316 24.3675L24.2493 24.2496M7.63239 7.86827L7.75023 7.75043M16.3329 4.33333C16.3329 4.51743 16.1837 4.66667 15.9996 4.66667C15.8155 4.66667 15.6663 4.51743 15.6663 4.33333C15.6663 4.14924 15.8155 4 15.9996 4C16.1837 4 16.3329 4.14924 16.3329 4.33333ZM16.3323 27.6667C16.3323 27.8508 16.1831 28 15.9989 28C15.8148 28 15.6656 27.8508 15.6656 27.6667C15.6656 27.4825 15.8148 27.3333 15.9989 27.3333C16.1831 27.3333 16.3323 27.4825 16.3323 27.6667ZM27.6667 16.3333C27.4825 16.3333 27.3333 16.1841 27.3333 16C27.3333 15.8159 27.4825 15.6667 27.6667 15.6667C27.8508 15.6667 28 15.8159 28 16C28 16.1841 27.8508 16.3333 27.6667 16.3333ZM4.33333 16.3333C4.14924 16.3333 4 16.1841 4 16C4 15.8159 4.14924 15.6667 4.33333 15.6667C4.51743 15.6667 4.66667 15.8159 4.66667 16C4.66667 16.1841 4.51743 16.3333 4.33333 16.3333ZM24.4848 7.98583C24.3547 8.116 24.1436 8.116 24.0133 7.98583C23.8832 7.85565 23.8832 7.6446 24.0133 7.51443C24.1436 7.38425 24.3547 7.38425 24.4848 7.51443C24.6149 7.6446 24.6149 7.85565 24.4848 7.98583ZM7.9852 24.4845C7.85503 24.6147 7.64396 24.6147 7.51379 24.4845C7.38361 24.3544 7.38361 24.1433 7.51379 24.0132C7.64396 23.8829 7.85503 23.8829 7.9852 24.0132C8.11537 24.1433 8.11537 24.3544 7.9852 24.4845ZM24.0137 24.4853C23.8835 24.3551 23.8835 24.144 24.0137 24.0139C24.1439 23.8837 24.3549 23.8837 24.4851 24.0139C24.6152 24.144 24.6152 24.3551 24.4851 24.4853C24.3549 24.6155 24.1439 24.6155 24.0137 24.4853ZM7.51453 7.98612C7.38436 7.85595 7.38436 7.64489 7.51453 7.51472C7.64471 7.38455 7.85576 7.38455 7.98593 7.51472C8.11611 7.64489 8.11611 7.85595 7.98593 7.98612C7.85576 8.11629 7.64471 8.11629 7.51453 7.98612Z" stroke="#EE9F28" stroke-width="1.5" stroke-linecap="round" stroke-linejoin="round"/>
</svg>
