<svg width="926" height="505" viewBox="0 0 926 505" fill="none" xmlns="http://www.w3.org/2000/svg">
<mask id="mask0_2334_28" style="mask-type:alpha" maskUnits="userSpaceOnUse" x="0" y="0" width="926" height="505">
<rect width="926" height="505" fill="url(#paint0_radial_2334_28)"/>
</mask>
<g mask="url(#mask0_2334_28)">
<path d="M85 371L23 389V505H911V356L864 383H824L793 350L751 371H682L666 326L613 315L571 253L477 286L427 262L377 295L319 301L276 376L224 337L171 356L143 410H106L85 371Z" fill="url(#paint1_linear_2334_28)" stroke="url(#paint2_linear_2334_28)" stroke-width="3"/>
<g filter="url(#filter0_d_2334_28)">
<circle cx="482" cy="284" r="6" fill="#0A0A0A"/>
</g>
<line x1="482.531" y1="12" x2="482.5" y2="493.999" stroke="#20C200" stroke-dasharray="4 4"/>
<line x1="60" y1="283.5" x2="904" y2="283.5" stroke="#20C200" stroke-dasharray="4 4"/>
</g>
<defs>
<filter id="filter0_d_2334_28" x="468" y="270" width="28" height="28" filterUnits="userSpaceOnUse" color-interpolation-filters="sRGB">
<feFlood flood-opacity="0" result="BackgroundImageFix"/>
<feColorMatrix in="SourceAlpha" type="matrix" values="0 0 0 0 0 0 0 0 0 0 0 0 0 0 0 0 0 0 127 0" result="hardAlpha"/>
<feMorphology radius="6" operator="dilate" in="SourceAlpha" result="effect1_dropShadow_2334_28"/>
<feOffset/>
<feGaussianBlur stdDeviation="1"/>
<feComposite in2="hardAlpha" operator="out"/>
<feColorMatrix type="matrix" values="0 0 0 0 0.126603 0 0 0 0 0.759615 0 0 0 0 0 0 0 0 0.5 0"/>
<feBlend mode="normal" in2="BackgroundImageFix" result="effect1_dropShadow_2334_28"/>
<feBlend mode="normal" in="SourceGraphic" in2="effect1_dropShadow_2334_28" result="shape"/>
</filter>
<radialGradient id="paint0_radial_2334_28" cx="0" cy="0" r="1" gradientUnits="userSpaceOnUse" gradientTransform="translate(463 252.5) rotate(90) scale(252.5 463)">
<stop offset="0.283168" stop-color="#D9D9D9"/>
<stop offset="1" stop-color="#737373" stop-opacity="0"/>
</radialGradient>
<linearGradient id="paint1_linear_2334_28" x1="441" y1="310" x2="442" y2="497" gradientUnits="userSpaceOnUse">
<stop stop-color="#0F5C00" stop-opacity="0.6"/>
<stop offset="1" stop-color="#20C200" stop-opacity="0"/>
</linearGradient>
<linearGradient id="paint2_linear_2334_28" x1="467" y1="280" x2="467" y2="505" gradientUnits="userSpaceOnUse">
<stop offset="0.257778" stop-color="#167204"/>
<stop offset="1" stop-color="#666666" stop-opacity="0"/>
</linearGradient>
</defs>
</svg>
