<svg width="159" height="180" viewBox="0 0 159 180" fill="none" xmlns="http://www.w3.org/2000/svg">
<circle cx="50" cy="50" r="50" transform="matrix(-0.998982 0.0451178 0.460418 -0.887702 99.8982 128.644)" fill="#F0AB42"/>
<path d="M122.919 84.2585C128.811 72.8994 129.826 61.7605 124.568 53.5342L133.185 67.0156C138.443 75.2418 137.428 86.3807 131.536 97.7399L122.919 84.2585Z" fill="#B87614"/>
<path d="M122.919 84.2585C110.205 108.772 77.5352 129.654 49.9491 130.899L58.5661 144.381C86.1522 143.135 118.822 122.253 131.536 97.7398L122.919 84.2585Z" fill="#CC8F33"/>
<path d="M21.3724 119.495C26.6305 127.721 37.166 131.477 49.9491 130.899L58.5661 144.381C45.783 144.958 35.2475 141.202 29.9894 132.976L21.3724 119.495Z" fill="#CC8F33"/>
</svg>
