<?xml version="1.0" encoding="UTF-8"?>
<svg version="1.1" xmlns="http://www.w3.org/2000/svg" width="174" height="126">
<path d="M0 0 C3 2 3 2 4 5 C4.99 6.485 4.99 6.485 6 8 C6.495 9.485 6.495 9.485 7 11 C7.99 11.99 7.99 11.99 9 13 C19 28 19 28 20 31 C21.30745749 32.68704193 22.64172029 34.35360035 24 36 C26 39 26 39 27 42 C27.515625 41.71125 28.03125 41.4225 28.5625 41.125 C31.62046187 39.71363298 34.76440246 38.92445644 38 38 C39.34882408 37.36525925 40.6846659 36.70151152 42 36 C45.03013866 34.71219107 47.78365072 33.80408732 51 33 C47.7 33 44.4 33 41 33 C43.29970217 29.55044674 44.03358036 29.41229729 47.875 28.375 C48.73867187 28.13523437 49.60234375 27.89546875 50.4921875 27.6484375 C52.06897866 27.24073137 53.65199705 26.85574281 55.2421875 26.50390625 C57.10521911 26.14248904 57.10521911 26.14248904 58.25 24.5625 C60.65017189 22.41948938 63.05882287 22.08807112 66.16015625 21.4296875 C68.08126395 21.05606754 68.08126395 21.05606754 70 20 C70.1875 22.3125 70.1875 22.3125 70 25 C69.02351983 26.02297922 68.01868662 27.01904252 67 28 C65.94647157 30.30965848 64.94280904 32.6429774 64 35 C62.67858075 37.6428385 60.84798888 39.69001391 59 42 C57.30831303 44.31645773 55.65426519 46.65645765 54 49 C53.34 48.34 52.68 47.68 52 47 C52 46.01 52 45.02 52 44 C51.5875 44.474375 51.175 44.94875 50.75 45.4375 C49 47 49 47 47.0625 47.375 C43.95645018 48.31622722 42.82910012 50.41403087 41 53 C40.67 53.66 40.34 54.32 40 55 C37.9375 55.625 37.9375 55.625 36 56 C36.45375 56.598125 36.9075 57.19625 37.375 57.8125 C42.62790698 64.88372093 42.62790698 64.88372093 44 69 C44.66 69.66 45.32 70.32 46 71 C50 77 50 77 51 80 C52.86771223 81.94133325 52.86771223 81.94133325 54.5625 83.25 C56 85 56 85 57 91 C50.4 91 43.8 91 37 91 C37 90.34 37 89.68 37 89 C36.34 89 35.68 89 35 89 C35 89.66 35 90.32 35 91 C32.41718164 91.22224251 29.83477813 91.42823488 27.25 91.625 C26.52039063 91.68945312 25.79078125 91.75390625 25.0390625 91.8203125 C17.98101756 92.33362486 17.98101756 92.33362486 15 90 C14.67 89.01 14.34 88.02 14 87 C13.34 86.01 12.68 85.02 12 84 C11.505 82.948125 11.505 82.948125 11 81.875 C10.14139842 79.82955462 10.14139842 79.82955462 8 79 C7.67 78.01 7.34 77.02 7 76 C6.34 75.01 5.68 74.02 5 73 C4.10869587 70.3260876 3.52268466 67.76276177 3 65 C2.4225 65.433125 1.845 65.86625 1.25 66.3125 C0.5075 66.869375 -0.235 67.42625 -1 68 C-1.680625 68.515625 -2.36125 69.03125 -3.0625 69.5625 C-4.67304725 70.75742215 -6.33139136 71.88759424 -8 73 C-9.33925525 75.30649516 -10.15274412 77.45823237 -11 80 C-13.0625 80.6875 -13.0625 80.6875 -15 81 C-15 81.66 -15 82.32 -15 83 C-16.32 83.33 -17.64 83.66 -19 84 C-19 84.66 -19 85.32 -19 86 C-21 86.66666667 -23 87.33333333 -25 88 C-25.598125 88.66 -26.19625 89.32 -26.8125 90 C-29.57404181 92.52483823 -31.33187498 92.43600938 -35 93 C-36.02351563 93.32097656 -37.04703125 93.64195313 -38.1015625 93.97265625 C-51.52161927 98.12364942 -65.08019758 97.38144484 -79 97 C-78.67 96.34 -78.34 95.68 -78 95 C-75.79785156 94.54516602 -75.79785156 94.54516602 -72.890625 94.25390625 C-71.83117676 94.14022705 -70.77172852 94.02654785 -69.68017578 93.90942383 C-67.98223877 93.73769653 -67.98223877 93.73769653 -66.25 93.5625 C-58.08621272 92.67216764 -50.20337406 91.66165932 -42.2578125 89.55078125 C-40 89 -40 89 -37 89 C-36.67 88.34 -36.34 87.68 -36 87 C-34.35965807 86.27095914 -32.68698082 85.61344757 -31 85 C-30.071875 84.62875 -29.14375 84.2575 -28.1875 83.875 C-27.465625 83.58625 -26.74375 83.2975 -26 83 C-26 82.34 -26 81.68 -26 81 C-27.32 81 -28.64 81 -30 81 C-30.33 81.66 -30.66 82.32 -31 83 C-32.65 83 -34.3 83 -36 83 C-36.33 83.66 -36.66 84.32 -37 85 C-50.39485642 88.18644162 -60.86945898 87.50907079 -73 81 C-73.66 80.67 -74.32 80.34 -75 80 C-75.66 79.34 -76.32 78.68 -77 78 C-78.485 77.505 -78.485 77.505 -80 77 C-80.66666667 75.66666667 -81.33333333 74.33333333 -82 73 C-82.99 72.67 -83.98 72.34 -85 72 C-85.6875 69.9375 -85.6875 69.9375 -86 68 C-86.66 68 -87.32 68 -88 68 C-88.66666667 66 -89.33333333 64 -90 62 C-90.515625 60.989375 -91.03125 59.97875 -91.5625 58.9375 C-93 56 -93 56 -93 54 C-93.66 53.67 -94.32 53.34 -95 53 C-94.67 52.34 -94.34 51.68 -94 51 C-94.66 50.67 -95.32 50.34 -96 50 C-97.01398984 44.22025792 -97.09732147 38.47769094 -97.125 32.625 C-97.12967285 31.9230249 -97.1343457 31.2210498 -97.13916016 30.49780273 C-97.12940923 27.3928814 -96.98927886 24.96783657 -96 22 C-95.34 22 -94.68 22 -94 22 C-94 27.94 -94 33.88 -94 40 C-93.34 40.33 -92.68 40.66 -92 41 C-91.60689586 43.32288812 -91.49250305 45.61845176 -91.34375 47.96875 C-91.17359375 48.97421875 -91.17359375 48.97421875 -91 50 C-90.34 50.33 -89.68 50.66 -89 51 C-86.71996593 54.28324906 -85.56481614 57.04628701 -85 61 C-84.01 61.33 -83.02 61.66 -82 62 C-81.86207031 62.59554687 -81.72414063 63.19109375 -81.58203125 63.8046875 C-80.76441046 66.88859946 -79.082041 68.06357845 -76.6875 70.125 C-75.90761719 70.80820313 -75.12773438 71.49140625 -74.32421875 72.1953125 C-72.26443872 73.79467111 -70.37357972 74.94628269 -68 76 C-68.22163818 75.40670898 -68.44327637 74.81341797 -68.67163086 74.20214844 C-69 72 -69 72 -67.92016602 70.35253906 C-67.37030029 69.82885742 -66.82043457 69.30517578 -66.25390625 68.765625 C-65.66416016 68.19199219 -65.07441406 67.61835937 -64.46679688 67.02734375 C-63.83837891 66.44082031 -63.20996094 65.85429688 -62.5625 65.25 C-61.93794922 64.64800781 -61.31339844 64.04601562 -60.66992188 63.42578125 C-59.12421404 61.9390699 -57.5634768 60.4680135 -56 59 C-56.47695313 58.54625 -56.95390625 58.0925 -57.4453125 57.625 C-59 56 -59 56 -59.875 54 C-60.91255833 51.76188538 -60.91255833 51.76188538 -63.5625 50.5 C-66.50844414 48.6871113 -66.21225701 48.15097194 -67 45 C-67.825 44.505 -68.65 44.01 -69.5 43.5 C-72 42 -72 42 -72.5625 39.9375 C-72.706875 39.298125 -72.85125 38.65875 -73 38 C-73.66 37.67 -74.32 37.34 -75 37 C-77 36 -77 36 -77.625 34.125 C-77.74875 33.42375 -77.8725 32.7225 -78 32 C-78.64491734 30.65601196 -79.30912545 29.32095215 -80 28 C-79.40531418 27.99635437 -78.81062836 27.99270874 -78.19792175 27.98895264 C-72.01720881 27.9471938 -65.83724308 27.87789548 -59.65698242 27.79248047 C-57.34944119 27.76422685 -55.0418024 27.74303429 -52.73413086 27.72900391 C-49.41990036 27.70763556 -46.10684849 27.66101555 -42.79296875 27.609375 C-41.24128242 27.60753204 -41.24128242 27.60753204 -39.6582489 27.60565186 C-38.21709465 27.57607391 -38.21709465 27.57607391 -36.74682617 27.54589844 C-35.90077316 27.53701599 -35.05472015 27.52813354 -34.18302917 27.51898193 C-31.2711249 26.82672105 -30.63267436 25.41631229 -29 23 C-28.34 23 -27.68 23 -27 23 C-28.07669801 19.44483882 -28.07669801 19.44483882 -30.57470703 16.83935547 C-34.05926248 15.63340604 -37.42013833 15.83418112 -41.0546875 15.9453125 C-42.65493922 15.97060826 -44.2552001 15.99532995 -45.85546875 16.01953125 C-48.36601618 16.06910413 -50.87608188 16.12502882 -53.38623047 16.19189453 C-55.81741268 16.2525666 -58.24798652 16.28792494 -60.6796875 16.3203125 C-61.42362762 16.34723175 -62.16756775 16.374151 -62.93405151 16.40188599 C-68.15594923 16.45176986 -70.92984146 15.19127894 -75 12 C-75.66 11.67 -76.32 11.34 -77 11 C-77.144375 10.38125 -77.28875 9.7625 -77.4375 9.125 C-78.09717457 6.63289608 -79.08288629 5.6670554 -81 4 C-80.67 3.34 -80.34 2.68 -80 2 C-72.98897653 2.11787346 -65.97810131 2.24269868 -58.96728516 2.37231445 C-56.58319898 2.41557604 -54.19908357 2.4572572 -51.81494141 2.49731445 C-48.38435057 2.5552298 -44.95390568 2.6188629 -41.5234375 2.68359375 C-39.92935562 2.70866249 -39.92935562 2.70866249 -38.30307007 2.73423767 C-33.44000153 2.831176 -28.77991647 2.99313604 -24 4 C-24 4.66 -24 5.32 -24 6 C-22.5459375 6.9590625 -22.5459375 6.9590625 -21.0625 7.9375 C-18 10 -18 10 -17 13 C-16.505 13.99 -16.505 13.99 -16 15 C-15.43333183 21.66924845 -15.94327508 26.0254922 -19 32 C-18.31357916 35.31470658 -18.31357916 35.31470658 -17 38 C-16.01 38 -15.02 38 -14 38 C-14.66 37.67 -15.32 37.34 -16 37 C-17.01174756 31.9412622 -17.48058437 28.68554825 -15 24 C-14.67 23.34 -14.34 22.68 -14 22 C-13.33333333 20.66666667 -12.66666667 19.33333333 -12 18 C-11.01 18 -10.02 18 -9 18 C-7.3125 20 -7.3125 20 -6 22 C-8.01069749 19.60262992 -9.07093575 17.91428299 -8.82421875 14.734375 C-7.50881902 8.50881902 -7.50881902 8.50881902 -5 6 C-3.06201737 3.22739701 -3.06201737 3.22739701 -2 1 C-1.34 0.67 -0.68 0.34 0 0 Z M-29 24 C-28 26 -28 26 -28 26 Z M2 34 C2 34.99 2 35.98 2 37 C2.66 36.34 3.32 35.68 4 35 C3.34 34.67 2.68 34.34 2 34 Z M50.9375 37 C50.298125 37.66 49.65875 38.32 49 39 C49.99 39 50.98 39 52 39 C52.66 37.68 53.32 36.36 54 35 C52.64082319 34.88397569 52.64082319 34.88397569 50.9375 37 Z M4 37 C4 37.99 4 38.98 4 40 C4.66 39.34 5.32 38.68 6 38 C5.34 37.67 4.68 37.34 4 37 Z M-60 41 C-59.05125 41.7425 -58.1025 42.485 -57.125 43.25 C-54.61499679 45.33775968 -53.3170183 46.98967247 -52 50 C-50.6949419 51.68889872 -49.36639342 53.3603279 -48 55 C-46.91481889 54.08552154 -45.83195262 53.16829593 -44.75 52.25 C-44.10804687 51.70601562 -43.46609375 51.16203125 -42.8046875 50.6015625 C-40.87087786 48.9471389 -40.87087786 48.9471389 -38.875 46.625 C-37 45 -37 45 -34.25 44.75 C-33.5075 44.8325 -32.765 44.915 -32 45 C-31.67 45.99 -31.34 46.98 -31 48 C-32.4375 50.6875 -32.4375 50.6875 -34 53 C-33.01 53.66 -32.02 54.32 -31 55 C-30.34 54.34 -29.68 53.68 -29 53 C-26.73725212 53.35355436 -25.04911148 53.97544426 -23 55 C-22.49661203 49.71442634 -23.65323004 47.09049661 -27 43 C-30.17926513 40.9755664 -32.96263045 40.67123681 -36.6875 40.4375 C-41.90084986 40.09915014 -41.90084986 40.09915014 -43 39 C-45.10131921 38.87397946 -47.20743788 38.8242078 -49.3125 38.8125 C-51.03919922 38.79123047 -51.03919922 38.79123047 -52.80078125 38.76953125 C-55.82412237 38.98732994 -57.46565871 39.4168189 -60 41 Z M-11 42 C-13.4108991 45.40362225 -12.80841864 47.86403775 -12.16015625 51.828125 C-11.89147535 55.47170011 -12.94581661 58.52739589 -14 62 C-13.34 62 -12.68 62 -12 62 C-11.608125 61.5875 -11.21625 61.175 -10.8125 60.75 C-8.18780183 58.21580866 -5.19781235 56.74974638 -2 55 C-2.96931207 52.83768845 -3.81466827 51.18533173 -5.5 49.5 C-7.19158687 47.80841313 -7.96425813 46.1405332 -9 44 C-9.66 43.34 -10.32 42.68 -11 42 Z M41 43 C40.01 44.485 40.01 44.485 39 46 C37.9790625 46.2475 37.9790625 46.2475 36.9375 46.5 C36.298125 46.665 35.65875 46.83 35 47 C34.67 47.99 34.34 48.98 34 50 C34.66 50 35.32 50 36 50 C35.67 51.32 35.34 52.64 35 54 C36.12894876 53.06725891 37.25300876 52.12859878 38.375 51.1875 C39.00148437 50.66542969 39.62796875 50.14335938 40.2734375 49.60546875 C42.2221048 47.91774261 42.2221048 47.91774261 44 45 C43.01 44.34 42.02 43.68 41 43 Z M10 46 C10 46.99 10 47.98 10 49 C10.99 49.33 11.98 49.66 13 50 C12.34 48.68 11.68 47.36 11 46 C10.67 46 10.34 46 10 46 Z M-53.125 57 C-53.74375 57.66 -54.3625 58.32 -55 59 C-54.67 59.66 -54.34 60.32 -54 61 C-52.35 59.02 -50.7 57.04 -49 55 C-51.24362573 54.7715451 -51.24362573 54.7715451 -53.125 57 Z M-25 55 C-25.33 55.99 -25.66 56.98 -26 58 C-25.34 58 -24.68 58 -24 58 C-24.33 57.01 -24.66 56.02 -25 55 Z M20 55 C21 57 21 57 21 57 Z M16.4375 57.375 C14.77914204 58.88807063 14.77914204 58.88807063 15 61 C16.485 61.99 16.485 61.99 18 63 C18.66 63.66 19.32 64.32 20 65 C21.30859649 63.30287793 21.30859649 63.30287793 22 61 C20.79031105 58.2332494 20.79031105 58.2332494 19 56 C17.77822672 55.88989535 17.77822672 55.88989535 16.4375 57.375 Z M-28 60 C-28 60.99 -28 61.98 -28 63 C-27.34 62.34 -26.68 61.68 -26 61 C-26.66 60.67 -27.32 60.34 -28 60 Z M22 63 C21.34 64.32 20.68 65.64 20 67 C22.475 67.99 22.475 67.99 25 69 C24.65555119 66.52733235 24.65555119 66.52733235 24 64 C23.34 63.67 22.68 63.34 22 63 Z M-31 64 C-33.2773501 66.81509993 -33.2773501 66.81509993 -33 70 C-32.01 70.33 -31.02 70.66 -30 71 C-29.01 70.01 -28.02 69.02 -27 68 C-28.32 66.68 -29.64 65.36 -31 64 Z M-24 66 C-24.66 66.66 -25.32 67.32 -26 68 C-24.35 67.67 -22.7 67.34 -21 67 C-21.99 66.67 -22.98 66.34 -24 66 Z M-50 70 C-50.52078125 70.64453125 -51.0415625 71.2890625 -51.578125 71.953125 C-54.70975418 74.59985676 -56.69773096 74.58790924 -60.75 74.75 C-61.92046875 74.80671875 -63.0909375 74.8634375 -64.296875 74.921875 C-65.63492188 74.96054688 -65.63492188 74.96054688 -67 75 C-67 75.66 -67 76.32 -67 77 C-53.8641729 77.34884922 -53.8641729 77.34884922 -41 75 C-41.33 74.34 -41.66 73.68 -42 73 C-43.65 73.33 -45.3 73.66 -47 74 C-47 73.01 -47 72.02 -47 71 C-47.99 70.67 -48.98 70.34 -50 70 Z M23 70 C24 72 24 72 24 72 Z M-37 71 C-37.33 71.66 -37.66 72.32 -38 73 C-37.01 72.67 -36.02 72.34 -35 72 C-35.66 71.67 -36.32 71.34 -37 71 Z M-41 72 C-41 72.66 -41 73.32 -41 74 C-40.01 73.67 -39.02 73.34 -38 73 C-38.99 72.67 -39.98 72.34 -41 72 Z M-14 73 C-13.34 73.66 -12.68 74.32 -12 75 C-12 74.34 -12 73.68 -12 73 C-12.66 73 -13.32 73 -14 73 Z M25 73 C26 75 26 75 26 75 Z M-16 74 C-15.34 74.66 -14.68 75.32 -14 76 C-14 75.34 -14 74.68 -14 74 C-14.66 74 -15.32 74 -16 74 Z M28 74 C29 76 29 76 29 76 Z M-17 75 C-16 77 -16 77 -16 77 Z M-23 78 C-23.33 78.99 -23.66 79.98 -24 81 C-23.01 81.33 -22.02 81.66 -21 82 C-20.34 81.34 -19.68 80.68 -19 80 C-20.32 79.34 -21.64 78.68 -23 78 Z " fill="#9E9994" transform="translate(102,25)"/>
<path d="M0 0 C7.15343676 0.11785938 14.30672785 0.24268499 21.45996094 0.37231445 C23.89255021 0.41557993 26.32516822 0.45726083 28.7578125 0.49731445 C32.25790049 0.55522032 35.75784501 0.61885623 39.2578125 0.68359375 C40.88470505 0.70866249 40.88470505 0.70866249 42.54446411 0.73423767 C47.45749673 0.83025083 52.17197006 0.97686545 57 2 C57 2.66 57 3.32 57 4 C58.4540625 4.9590625 58.4540625 4.9590625 59.9375 5.9375 C63 8 63 8 64 11 C64.495 11.99 64.495 11.99 65 13 C65.56666817 19.66924845 65.05672492 24.0254922 62 30 C62.65638343 33.5736431 63.547632 35.5052225 66 38.1875 C69.2763631 42.79488561 70.48564058 48.64098598 69.671875 54.26953125 C69.125 56.1875 69.125 56.1875 68 59 C69.65 59 71.3 59 73 59 C74.16597435 62.49792306 74.42009829 63.60389306 73 67 C70.35422564 69.06718676 67.43637335 70.50924565 64.4375 72 C63.58720215 72.43497803 62.7369043 72.86995605 61.86083984 73.31811523 C51.5965743 78.4177601 39.80574836 83.23590669 28.1875 83.0625 C27.39730469 83.05347656 26.60710938 83.04445313 25.79296875 83.03515625 C25.20128906 83.02355469 24.60960938 83.01195313 24 83 C23.01 80.69 22.02 78.38 21 76 C26.94 74.68 32.88 73.36 39 72 C36.03 72.495 36.03 72.495 33 73 C34.28774266 69.28980694 35.73537812 66.88289983 38.4765625 64.08203125 C39.48203125 63.03692383 39.48203125 63.03692383 40.5078125 61.97070312 C41.20648438 61.25849609 41.90515625 60.54628906 42.625 59.8125 C44.01741352 58.38578432 45.40567278 56.95499839 46.7890625 55.51953125 C47.40475098 54.89151611 48.02043945 54.26350098 48.65478516 53.61645508 C50.21322347 52.09428043 50.21322347 52.09428043 50 50 C52.375 49.875 52.375 49.875 55 50 C55.66 50.66 56.32 51.32 57 52 C57 50.35 57 48.7 57 47 C56.01 46.505 56.01 46.505 55 46 C54.855625 45.34 54.71125 44.68 54.5625 44 C54.376875 43.34 54.19125 42.68 54 42 C48.90568487 40.30189496 44.40528826 38.84102093 39 39 C38.67 38.67 38.34 38.34 38 38 C35.87691847 37.90057194 33.75040328 37.87030816 31.625 37.875 C29.88089844 37.87113281 29.88089844 37.87113281 28.1015625 37.8671875 C24.96428577 37.85893157 24.96428577 37.85893157 22 39 C25.32086771 41.77000825 25.32086771 41.77000825 29 44 C29.34342449 45.33076989 29.67619874 46.66431979 30 48 C30.66 48.66 31.32 49.32 32 50 C32 50.99 32 51.98 32 53 C29 55.1875 29 55.1875 26 57 C22.22727273 54.48484848 22.22727273 54.48484848 21.0625 52 C20.09357341 49.75364972 20.09357341 49.75364972 17.4375 48.5 C14.49155586 46.6871113 14.78774299 46.15097194 14 43 C13.175 42.505 12.35 42.01 11.5 41.5 C9 40 9 40 8.4375 37.9375 C8.293125 37.298125 8.14875 36.65875 8 36 C7.34 35.67 6.68 35.34 6 35 C4 34 4 34 3.375 32.125 C3.189375 31.073125 3.189375 31.073125 3 30 C2.35508266 28.65601196 1.69087455 27.32095215 1 26 C1.59468582 25.99635437 2.18937164 25.99270874 2.80207825 25.98895264 C8.98279119 25.9471938 15.16275692 25.87789548 21.34301758 25.79248047 C23.65055881 25.76422685 25.9581976 25.74303429 28.26586914 25.72900391 C31.58009964 25.70763556 34.89315151 25.66101555 38.20703125 25.609375 C39.75871758 25.60753204 39.75871758 25.60753204 41.3417511 25.60565186 C42.78290535 25.57607391 42.78290535 25.57607391 44.25317383 25.54589844 C45.09922684 25.53701599 45.94527985 25.52813354 46.81697083 25.51898193 C49.7288751 24.82672105 50.36732564 23.41631229 52 21 C52.66 21 53.32 21 54 21 C52.92330199 17.44483882 52.92330199 17.44483882 50.42529297 14.83935547 C46.94073752 13.63340604 43.57986167 13.83418112 39.9453125 13.9453125 C38.34506078 13.97060826 36.7447999 13.99532995 35.14453125 14.01953125 C32.63398382 14.06910413 30.12391812 14.12502882 27.61376953 14.19189453 C25.18258732 14.2525666 22.75201348 14.28792494 20.3203125 14.3203125 C19.20440231 14.36069138 19.20440231 14.36069138 18.06594849 14.40188599 C12.84405077 14.45176986 10.07015854 13.19127894 6 10 C5.34 9.67 4.68 9.34 4 9 C3.855625 8.38125 3.71125 7.7625 3.5625 7.125 C2.8986636 4.61717359 1.84004521 3.76004324 0 2 C0 1.34 0 0.68 0 0 Z M52 22 C53 24 53 24 53 24 Z M56 53 C55.67 53.99 55.34 54.98 55 56 C55.66 56 56.32 56 57 56 C56.67 55.01 56.34 54.02 56 53 Z M53 58 C53 58.99 53 59.98 53 61 C53.66 60.34 54.32 59.68 55 59 C54.34 58.67 53.68 58.34 53 58 Z M50 62 C47.7226499 64.81509993 47.7226499 64.81509993 48 68 C48.99 68.33 49.98 68.66 51 69 C51.99 68.01 52.98 67.02 54 66 C52.68 64.68 51.36 63.36 50 62 Z M57 64 C56.34 64.66 55.68 65.32 55 66 C56.65 65.67 58.3 65.34 60 65 C59.01 64.67 58.02 64.34 57 64 Z M44 69 C43.67 69.66 43.34 70.32 43 71 C43.99 70.67 44.98 70.34 46 70 C45.34 69.67 44.68 69.34 44 69 Z M40 70 C40 70.66 40 71.32 40 72 C40.99 71.67 41.98 71.34 43 71 C42.01 70.67 41.02 70.34 40 70 Z " fill="#DAB781" transform="translate(21,27)"/>
<path d="M0 0 C0.66 0 1.32 0 2 0 C2 5.94 2 11.88 2 18 C2.66 18.33 3.32 18.66 4 19 C4.39310414 21.32288812 4.50749695 23.61845176 4.65625 25.96875 C4.82640625 26.97421875 4.82640625 26.97421875 5 28 C5.66 28.33 6.32 28.66 7 29 C9.28003407 32.28324906 10.43518386 35.04628701 11 39 C11.99 39.33 12.98 39.66 14 40 C14.13792969 40.59554687 14.27585937 41.19109375 14.41796875 41.8046875 C15.23558954 44.88859946 16.917959 46.06357845 19.3125 48.125 C20.48232422 49.14980469 20.48232422 49.14980469 21.67578125 50.1953125 C23.73556128 51.79467111 25.62642028 52.94628269 28 54 C27.78053711 53.40670898 27.56107422 52.81341797 27.33496094 52.20214844 C27 50 27 50 28.03222656 48.35253906 C28.56299805 47.82885742 29.09376953 47.30517578 29.640625 46.765625 C30.21683594 46.19199219 30.79304688 45.61835937 31.38671875 45.02734375 C32.30904297 44.14755859 32.30904297 44.14755859 33.25 43.25 C34.14912109 42.34701172 34.14912109 42.34701172 35.06640625 41.42578125 C39.59254535 37 39.59254535 37 43 37 C45.44928799 34.87862378 45.44928799 34.87862378 47.9375 32.1875 C55.82869198 23.93924051 55.82869198 23.93924051 61 22 C63.1875 22.1875 63.1875 22.1875 65 23 C65.495 24.485 65.495 24.485 66 26 C65.03114628 27.68496298 64.03013277 29.35178756 63 31 C63 31.99 63 32.98 63 34 C60.99378693 36.78431819 58.54610024 39.19877009 56.1875 41.6875 C55.54490234 42.38939453 54.90230469 43.09128906 54.24023438 43.81445312 C53.30727539 44.80928711 53.30727539 44.80928711 52.35546875 45.82421875 C51.78465576 46.43354248 51.21384277 47.04286621 50.62573242 47.6706543 C49 49 49 49 46 49 C45.41734375 49.65484375 44.8346875 50.3096875 44.234375 50.984375 C41.18414937 53.73597714 39.28551317 53.41142053 35.25 53.25 C34.07953125 53.21390625 32.9090625 53.1778125 31.703125 53.140625 C30.81109375 53.09421875 29.9190625 53.0478125 29 53 C29 53.66 29 54.32 29 55 C33.29 55 37.58 55 42 55 C42 55.33 42 55.66 42 56 C39.525 56.495 39.525 56.495 37 57 C37.66 58.65 38.32 60.3 39 62 C56.73796139 63.26699724 73.10898864 54.67512755 88 46 C88 44.02 88 42.04 88 40 C86.68 40 85.36 40 84 40 C85 37 85 37 86.84765625 35.83203125 C87.57855469 35.49558594 88.30945313 35.15914062 89.0625 34.8125 C89.79597656 34.46832031 90.52945313 34.12414062 91.28515625 33.76953125 C91.85105469 33.51558594 92.41695313 33.26164062 93 33 C92.34 32.67 91.68 32.34 91 32 C90.375 29.4375 90.375 29.4375 90 27 C88.515 26.505 88.515 26.505 87 26 C86.67 24.35 86.34 22.7 86 21 C84.515 21.495 84.515 21.495 83 22 C81 17.25 81 17.25 81 15 C80.505 13.515 80.505 13.515 80 12 C79.65772583 10.66893378 79.32248257 9.33599921 79 8 C79.66 8 80.32 8 81 8 C82.1574707 9.54125977 82.1574707 9.54125977 83.42578125 11.69140625 C84.12670898 12.86219727 84.12670898 12.86219727 84.84179688 14.05664062 C85.32712891 14.88357422 85.81246094 15.71050781 86.3125 16.5625 C89.66618272 22.22497654 93.09405494 27.69958275 97 33 C100.48670834 31.8905928 103.77484237 30.73662334 107 29 C107 32.20395416 106.25664978 34.09399739 105 37 C117.02006195 30.94933379 128.85346629 24.87113071 139.94506836 17.21557617 C141.59517535 16.09077563 143.29329117 15.03690612 145 14 C145.99 14.495 145.99 14.495 147 15 C144.93506643 19.02118642 143.07786057 21.01334998 139 23 C138.34 23 137.68 23 137 23 C134.29922378 24.02443236 132.87837604 25.12877831 130.875 27.25 C127.07285822 30.88683127 122.84722207 33.90347794 118 36 C115.69140625 35.6640625 115.69140625 35.6640625 114 35 C113.505 35.99 113.505 35.99 113 37 C112.34 37 111.68 37 111 37 C110.67 37.99 110.34 38.98 110 40 C107.49609375 41.38671875 107.49609375 41.38671875 104.4375 42.6875 C103.42558594 43.12449219 102.41367188 43.56148437 101.37109375 44.01171875 C100.58863281 44.33785156 99.80617188 44.66398437 99 45 C99 44.34 99 43.68 99 43 C98.4225 43.433125 97.845 43.86625 97.25 44.3125 C96.5075 44.869375 95.765 45.42625 95 46 C94.319375 46.515625 93.63875 47.03125 92.9375 47.5625 C91.32695275 48.75742215 89.66860864 49.88759424 88 51 C86.66074475 53.30649516 85.84725588 55.45823237 85 58 C82.9375 58.6875 82.9375 58.6875 81 59 C81 59.66 81 60.32 81 61 C79.68 61.33 78.36 61.66 77 62 C77 62.66 77 63.32 77 64 C75 64.66666667 73 65.33333333 71 66 C70.401875 66.66 69.80375 67.32 69.1875 68 C66.42595819 70.52483823 64.66812502 70.43600938 61 71 C59.97648437 71.32097656 58.95296875 71.64195313 57.8984375 71.97265625 C44.47838073 76.12364942 30.91980242 75.38144484 17 75 C17.33 74.34 17.66 73.68 18 73 C20.20214844 72.54516602 20.20214844 72.54516602 23.109375 72.25390625 C24.16882324 72.14022705 25.22827148 72.02654785 26.31982422 71.90942383 C28.01776123 71.73769653 28.01776123 71.73769653 29.75 71.5625 C37.91378728 70.67216764 45.79662594 69.66165932 53.7421875 67.55078125 C56 67 56 67 59 67 C59.33 66.34 59.66 65.68 60 65 C61.64034193 64.27095914 63.31301918 63.61344757 65 63 C65.928125 62.62875 66.85625 62.2575 67.8125 61.875 C68.534375 61.58625 69.25625 61.2975 70 61 C70 60.34 70 59.68 70 59 C68.68 59 67.36 59 66 59 C65.505 59.99 65.505 59.99 65 61 C63.35 61 61.7 61 60 61 C59.505 61.99 59.505 61.99 59 63 C45.60514358 66.18644162 35.13054102 65.50907079 23 59 C22.34 58.67 21.68 58.34 21 58 C20.34 57.34 19.68 56.68 19 56 C17.515 55.505 17.515 55.505 16 55 C15 53 15 53 14 51 C13.01 50.67 12.02 50.34 11 50 C10.3125 47.9375 10.3125 47.9375 10 46 C9.34 46 8.68 46 8 46 C7.33333333 44 6.66666667 42 6 40 C5.484375 38.989375 4.96875 37.97875 4.4375 36.9375 C3 34 3 34 3 32 C2.34 31.67 1.68 31.34 1 31 C1.33 30.34 1.66 29.68 2 29 C1.34 28.67 0.68 28.34 0 28 C-1.01398984 22.22025792 -1.09732147 16.47769094 -1.125 10.625 C-1.12967285 9.9230249 -1.1343457 9.2210498 -1.13916016 8.49780273 C-1.12940923 5.3928814 -0.98927886 2.96783657 0 0 Z M116 33 C117 35 117 35 117 35 Z M82 51 C82.66 51.66 83.32 52.32 84 53 C84 52.34 84 51.68 84 51 C83.34 51 82.68 51 82 51 Z M80 52 C80.66 52.66 81.32 53.32 82 54 C82 53.34 82 52.68 82 52 C81.34 52 80.68 52 80 52 Z M79 53 C80 55 80 55 80 55 Z M73 56 C72.67 56.99 72.34 57.98 72 59 C72.99 59.33 73.98 59.66 75 60 C75.66 59.34 76.32 58.68 77 58 C75.68 57.34 74.36 56.68 73 56 Z " fill="#785933" transform="translate(6,47)"/>
<path d="M0 0 C3 2 3 2 4 5 C4.99 6.485 4.99 6.485 6 8 C6.33 8.99 6.66 9.98 7 11 C7.66 11.66 8.32 12.32 9 13 C19 28 19 28 20 31 C21.30745749 32.68704193 22.64172029 34.35360035 24 36 C26 39 26 39 27 42 C27.53625 41.690625 28.0725 41.38125 28.625 41.0625 C31.97054443 39.56580907 35.33875549 39 39 39 C39 39.66 39 40.32 39 41 C39.99 41.495 39.99 41.495 41 42 C33.75120921 46.62661951 26.4051093 50.9613436 18.8125 55 C18.07008057 55.39759521 17.32766113 55.79519043 16.56274414 56.20483398 C11.24903312 59 11.24903312 59 9 59 C9.875 54.25 9.875 54.25 11 52 C10.34 51.67 9.68 51.34 9 51 C9 51.66 9 52.32 9 53 C6.69 53.99 4.38 54.98 2 56 C-2.24967 52.09366061 -5.19057107 47.91478209 -8.1875 43 C-8.62513672 42.30132812 -9.06277344 41.60265625 -9.51367188 40.8828125 C-11.71416297 37.32171241 -13.44438321 33.89272828 -15 30 C-15.66 29.67 -16.32 29.34 -17 29 C-15.50840846 25.22130143 -13.81541367 21.63082734 -12 18 C-11.01 18 -10.02 18 -9 18 C-7.3125 20 -7.3125 20 -6 22 C-8.01069749 19.60262992 -9.07093575 17.91428299 -8.82421875 14.734375 C-7.50881902 8.50881902 -7.50881902 8.50881902 -5 6 C-3.06201737 3.22739701 -3.06201737 3.22739701 -2 1 C-1.34 0.67 -0.68 0.34 0 0 Z M2 34 C2 34.99 2 35.98 2 37 C2.66 36.34 3.32 35.68 4 35 C3.34 34.67 2.68 34.34 2 34 Z M4 37 C4 37.99 4 38.98 4 40 C4.66 39.34 5.32 38.68 6 38 C5.34 37.67 4.68 37.34 4 37 Z M10 46 C10 46.99 10 47.98 10 49 C10.99 49.33 11.98 49.66 13 50 C12.34 48.68 11.68 47.36 11 46 C10.67 46 10.34 46 10 46 Z " fill="#D7D3CF" transform="translate(102,25)"/>
<path d="M0 0 C6.47984596 -0.59752678 10.9224915 -0.24874592 16.3125 3.5546875 C18.54038855 5.46283279 20.25554099 7.6516898 22 10 C22.66 10 23.32 10 24 10 C24.185625 9.071875 24.185625 9.071875 24.375 8.125 C25 6 25 6 27 4 C27 4.66 27 5.32 27 6 C27.66 6 28.32 6 29 6 C29 6.66 29 7.32 29 8 C29.66 8 30.32 8 31 8 C32.01603857 13.79141983 31.96263236 17.4584498 30 23 C31.65 23 33.3 23 35 23 C36.16597435 26.49792306 36.42009829 27.60389306 35 31 C32.35422564 33.06718676 29.43637335 34.50924565 26.4375 36 C25.58720215 36.43497803 24.7369043 36.86995605 23.86083984 37.31811523 C13.5965743 42.4177601 1.80574836 47.23590669 -9.8125 47.0625 C-10.60269531 47.05347656 -11.39289062 47.04445312 -12.20703125 47.03515625 C-12.79871094 47.02355469 -13.39039063 47.01195312 -14 47 C-15.485 43.535 -15.485 43.535 -17 40 C-11.06 38.68 -5.12 37.36 1 36 C-1.97 36.495 -1.97 36.495 -5 37 C-3.71225734 33.28980694 -2.26462188 30.88289983 0.4765625 28.08203125 C1.146875 27.38529297 1.8171875 26.68855469 2.5078125 25.97070312 C3.20648438 25.25849609 3.90515625 24.54628906 4.625 23.8125 C6.01741352 22.38578432 7.40567278 20.95499839 8.7890625 19.51953125 C9.40475098 18.89151611 10.02043945 18.26350098 10.65478516 17.61645508 C12.21322347 16.09428043 12.21322347 16.09428043 12 14 C14.375 13.875 14.375 13.875 17 14 C17.66 14.66 18.32 15.32 19 16 C19 14.35 19 12.7 19 11 C18.34 10.67 17.68 10.34 17 10 C16.855625 9.34 16.71125 8.68 16.5625 8 C16.376875 7.34 16.19125 6.68 16 6 C8.66510831 3.49744115 8.66510831 3.49744115 1 3 C0.67 2.01 0.34 1.02 0 0 Z M18 17 C17.67 17.99 17.34 18.98 17 20 C17.66 20 18.32 20 19 20 C18.67 19.01 18.34 18.02 18 17 Z M15 22 C15 22.99 15 23.98 15 25 C15.66 24.34 16.32 23.68 17 23 C16.34 22.67 15.68 22.34 15 22 Z M12 26 C9.7226499 28.81509993 9.7226499 28.81509993 10 32 C10.99 32.33 11.98 32.66 13 33 C13.99 32.01 14.98 31.02 16 30 C14.68 28.68 13.36 27.36 12 26 Z M19 28 C18.34 28.66 17.68 29.32 17 30 C18.65 29.67 20.3 29.34 22 29 C21.01 28.67 20.02 28.34 19 28 Z M6 33 C5.67 33.66 5.34 34.32 5 35 C5.99 34.67 6.98 34.34 8 34 C7.34 33.67 6.68 33.34 6 33 Z M2 34 C2 34.66 2 35.32 2 36 C2.99 35.67 3.98 35.34 5 35 C4.01 34.67 3.02 34.34 2 34 Z " fill="#C49D66" transform="translate(59,63)"/>
<path d="M0 0 C0.66 0 1.32 0 2 0 C3.1574707 1.54125977 3.1574707 1.54125977 4.42578125 3.69140625 C5.12670898 4.86219727 5.12670898 4.86219727 5.84179688 6.05664062 C6.32712891 6.88357422 6.81246094 7.71050781 7.3125 8.5625 C10.66618272 14.22497654 14.09405494 19.69958275 18 25 C21.48670834 23.8905928 24.77484237 22.73662334 28 21 C28 24.20395416 27.25664978 26.09399739 26 29 C38.02006195 22.94933379 49.85346629 16.87113071 60.94506836 9.21557617 C62.59517535 8.09077563 64.29329117 7.03690612 66 6 C66.99 6.495 66.99 6.495 68 7 C65.93506643 11.02118642 64.07786057 13.01334998 60 15 C59.34 15 58.68 15 58 15 C55.29922378 16.02443236 53.87837604 17.12877831 51.875 19.25 C48.07285822 22.88683127 43.84722207 25.90347794 39 28 C36.69140625 27.6640625 36.69140625 27.6640625 35 27 C34.67 27.66 34.34 28.32 34 29 C33.34 29 32.68 29 32 29 C31.505 30.485 31.505 30.485 31 32 C28.49609375 33.38671875 28.49609375 33.38671875 25.4375 34.6875 C24.42558594 35.12449219 23.41367188 35.56148437 22.37109375 36.01171875 C21.58863281 36.33785156 20.80617188 36.66398437 20 37 C20 36.34 20 35.68 20 35 C19.4225 35.433125 18.845 35.86625 18.25 36.3125 C17.5075 36.869375 16.765 37.42625 16 38 C15.319375 38.515625 14.63875 39.03125 13.9375 39.5625 C12.32695275 40.75742215 10.66860864 41.88759424 9 43 C7.66074475 45.30649516 6.84725588 47.45823237 6 50 C3.9375 50.6875 3.9375 50.6875 2 51 C2 51.66 2 52.32 2 53 C0.02 53.495 0.02 53.495 -2 54 C-2 54.66 -2 55.32 -2 56 C-4 56.66666667 -6 57.33333333 -8 58 C-8.598125 58.66 -9.19625 59.32 -9.8125 60 C-12.57404181 62.52483823 -14.33187498 62.43600938 -18 63 C-19.02351563 63.32097656 -20.04703125 63.64195313 -21.1015625 63.97265625 C-34.52161927 68.12364942 -48.08019758 67.38144484 -62 67 C-61.505 66.01 -61.505 66.01 -61 65 C-58.79785156 64.54516602 -58.79785156 64.54516602 -55.890625 64.25390625 C-54.83117676 64.14022705 -53.77172852 64.02654785 -52.68017578 63.90942383 C-50.98223877 63.73769653 -50.98223877 63.73769653 -49.25 63.5625 C-41.08621272 62.67216764 -33.20337406 61.66165932 -25.2578125 59.55078125 C-23 59 -23 59 -20 59 C-19.505 58.01 -19.505 58.01 -19 57 C-17.35965807 56.27095914 -15.68698082 55.61344757 -14 55 C-13.071875 54.62875 -12.14375 54.2575 -11.1875 53.875 C-10.465625 53.58625 -9.74375 53.2975 -9 53 C-9 52.34 -9 51.68 -9 51 C-10.32 51 -11.64 51 -13 51 C-13.495 51.99 -13.495 51.99 -14 53 C-15.65 53 -17.3 53 -19 53 C-19.495 53.99 -19.495 53.99 -20 55 C-22.984375 55.66796875 -22.984375 55.66796875 -26.75 56.1875 C-27.98234375 56.36667969 -29.2146875 56.54585937 -30.484375 56.73046875 C-33.64778321 56.97299671 -35.96174364 56.81754608 -39 56 C-39 55.67 -39 55.34 -39 55 C-37.93523438 54.84144531 -36.87046875 54.68289062 -35.7734375 54.51953125 C-19.25895484 51.92669619 -5.53580582 46.07740299 9 38 C9 36.02 9 34.04 9 32 C7.68 32 6.36 32 5 32 C6 29 6 29 7.84765625 27.83203125 C8.57855469 27.49558594 9.30945313 27.15914062 10.0625 26.8125 C10.79597656 26.46832031 11.52945313 26.12414062 12.28515625 25.76953125 C12.85105469 25.51558594 13.41695313 25.26164062 14 25 C13.34 24.67 12.68 24.34 12 24 C11.375 21.4375 11.375 21.4375 11 19 C9.515 18.505 9.515 18.505 8 18 C7.67 16.35 7.34 14.7 7 13 C6.01 13.33 5.02 13.66 4 14 C2 9.25 2 9.25 2 7 C1.505 5.515 1.505 5.515 1 4 C0.65772583 2.66893378 0.32248257 1.33599921 0 0 Z M37 25 C38 27 38 27 38 27 Z M3 43 C3.66 43.66 4.32 44.32 5 45 C5 44.34 5 43.68 5 43 C4.34 43 3.68 43 3 43 Z M1 44 C1.66 44.66 2.32 45.32 3 46 C3 45.34 3 44.68 3 44 C2.34 44 1.68 44 1 44 Z M0 45 C1 47 1 47 1 47 Z M-6 48 C-6.33 48.99 -6.66 49.98 -7 51 C-6.01 51.33 -5.02 51.66 -4 52 C-3.34 51.34 -2.68 50.68 -2 50 C-3.32 49.34 -4.64 48.68 -6 48 Z " fill="#5C5956" transform="translate(85,55)"/>
<path d="M0 0 C3 2 3 2 4 5 C4.99 6.485 4.99 6.485 6 8 C6.33 8.99 6.66 9.98 7 11 C7.66 11.66 8.32 12.32 9 13 C17 25 17 25 17 28 C16.38898438 28.25136719 15.77796875 28.50273438 15.1484375 28.76171875 C11.56898372 30.82478575 10.19106379 34.13648683 9 38 C9.47730529 40.7774903 9.47730529 40.7774903 11 43 C11.37125 43.763125 11.7425 44.52625 12.125 45.3125 C12.41375 45.869375 12.7025 46.42625 13 47 C11.35 46.34 9.7 45.68 8 45 C8 44.34 8 43.68 8 43 C7.01 42.34 6.02 41.68 5 41 C4.505 39.515 4.505 39.515 4 38 C3.34 37.01 2.68 36.02 2 35 C1.505 33.515 1.505 33.515 1 32 C0.34 31.34 -0.32 30.68 -1 30 C-1.66666667 28.66666667 -2.33333333 27.33333333 -3 26 C-3.66 25.34 -4.32 24.68 -5 24 C-9.07148328 18.45825887 -9.07148328 18.45825887 -8.8828125 14.609375 C-7.62882653 8.62882653 -7.62882653 8.62882653 -5 6 C-3.06201737 3.22739701 -3.06201737 3.22739701 -2 1 C-1.34 0.67 -0.68 0.34 0 0 Z " fill="#A7A29E" transform="translate(102,25)"/>
<path d="M0 0 C0.33 0.99 0.66 1.98 1 3 C1.99 4.485 1.99 4.485 3 6 C3.33 6.99 3.66 7.98 4 9 C4.87279805 10.39731863 5.78548721 11.77001292 6.72265625 13.125 C7.26083984 13.91390625 7.79902344 14.7028125 8.35351562 15.515625 C9.4940947 17.1737011 10.63733262 18.8299513 11.78320312 20.484375 C12.32009766 21.27328125 12.85699219 22.0621875 13.41015625 22.875 C13.90652588 23.59429687 14.40289551 24.31359375 14.91430664 25.0546875 C16 27 16 27 16 30 C13.41718164 30.22224251 10.83477813 30.42823488 8.25 30.625 C7.52039063 30.68945312 6.79078125 30.75390625 6.0390625 30.8203125 C-1.01898244 31.33362486 -1.01898244 31.33362486 -4 29 C-4.33 28.01 -4.66 27.02 -5 26 C-5.66 25.01 -6.32 24.02 -7 23 C-7.33 22.29875 -7.66 21.5975 -8 20.875 C-8.85860158 18.82955462 -8.85860158 18.82955462 -11 18 C-11.33 17.01 -11.66 16.02 -12 15 C-12.66 14.01 -13.32 13.02 -14 12 C-15 9 -15 9 -15 6 C-13.25595212 4.98965502 -11.50450439 3.99207578 -9.75 3 C-8.77546875 2.443125 -7.8009375 1.88625 -6.796875 1.3125 C-4 0 -4 0 0 0 Z " fill="#C1BDB9" transform="translate(121,86)"/>
<path d="M0 0 C2.31 0 4.62 0 7 0 C8.16597435 3.49792306 8.42009829 4.60389306 7 8 C4.35422564 10.06718676 1.43637335 11.50924565 -1.5625 13 C-2.83794678 13.65246704 -2.83794678 13.65246704 -4.13916016 14.31811523 C-14.4034257 19.4177601 -26.19425164 24.23590669 -37.8125 24.0625 C-38.60269531 24.05347656 -39.39289062 24.04445313 -40.20703125 24.03515625 C-40.79871094 24.02355469 -41.39039063 24.01195313 -42 24 C-42.99 21.69 -43.98 19.38 -45 17 C-44.38068604 16.86948242 -43.76137207 16.73896484 -43.12329102 16.60449219 C-40.26741428 15.99653036 -37.41505165 15.37336911 -34.5625 14.75 C-33.58861328 14.54503906 -32.61472656 14.34007813 -31.61132812 14.12890625 C-26.03762313 12.8985901 -21.00436288 11.35252079 -15.85522461 8.87597656 C-14 8 -14 8 -11 7 C-9.28554348 6.39199785 -7.57763866 5.76535098 -5.875 5.125 C-4.98554687 4.79757813 -4.09609375 4.47015625 -3.1796875 4.1328125 C-0.66180876 3.14535516 -0.66180876 3.14535516 0 0 Z " fill="#DCD6D1" transform="translate(87,86)"/>
<path d="M0 0 C1.32 0 2.64 0 4 0 C4.9765625 1.7578125 5.953125 3.515625 6.9296875 5.2734375 C8.00897274 7.1612614 8.00897274 7.1612614 10 9 C10.66666667 10.33333333 11.33333333 11.66666667 12 13 C12.66 13.66 13.32 14.32 14 15 C15.32226325 17.27158046 16.54599457 19.58638004 17.78125 21.90625 C18.95163911 24.12189986 18.95163911 24.12189986 21 26 C21.66 26.99 22.32 27.98 23 29 C22.34 29 21.68 29 21 29 C21.66 30.32 22.32 31.64 23 33 C20.10640878 36.3222714 18.31085759 37.32084333 14 38 C9.88379283 32.25583951 5.91262056 26.42503124 2.0625 20.5 C1.6610376 19.88882324 1.2595752 19.27764648 0.84594727 18.64794922 C-2 14.23521551 -2 14.23521551 -2 12 C-2.66 11.67 -3.32 11.34 -4 11 C-2.125 6.25 -2.125 6.25 -1 4 C-0.64830932 2.67139075 -0.31229724 1.33841672 0 0 Z " fill="#C3BEBA" transform="translate(89,43)"/>
<path d="M0 0 C1.0621875 0.26554688 2.124375 0.53109375 3.21875 0.8046875 C4.24742188 1.06185547 4.24742188 1.06185547 5.296875 1.32421875 C6.02390625 1.50597656 6.7509375 1.68773437 7.5 1.875 C8.19609375 2.04902344 8.8921875 2.22304687 9.609375 2.40234375 C11.02207866 2.75551967 12.43443036 3.11010629 13.84643555 3.46606445 C15.31393404 3.82990293 16.78434342 4.18215093 18.25708008 4.52416992 C22.13889494 5.4387977 24.31398577 6.05817489 27 9 C28.66194453 9.35613097 30.328451 9.69208308 32 10 C32.495 10.99 32.495 10.99 33 12 C33.66 12.33 34.32 12.66 35 13 C35.99 13.66 36.98 14.32 38 15 C39.0209375 15.433125 39.0209375 15.433125 40.0625 15.875 C42 17 42 17 42.9375 19 C44.4052561 21.76283501 46.12630058 21.94864655 49 23 C51.09068949 24.6426846 51.88241382 25.44566517 52.4375 28.0625 C52.7159375 29.0215625 52.7159375 29.0215625 53 30 C53.66 30.33 54.32 30.66 55 31 C55.66 31.33 56.32 31.66 57 32 C57.625 34 57.625 34 58 36 C58.66 36.66 59.32 37.32 60 38 C60.66 38.99 61.32 39.98 62 41 C62.7734375 41.86625 62.7734375 41.86625 63.5625 42.75 C65.47985694 45.75108042 65.66301513 48.49535739 66 52 C60.53234266 51.51398601 60.53234266 51.51398601 58.1875 49.25 C56.90399226 46.8180906 56.37695149 44.71405075 56 42 C55.34 42 54.68 42 54 42 C53.67 41.01 53.34 40.02 53 39 C52.18330183 36.86644906 52.18330183 36.86644906 51 35 C50.01 34.67 49.02 34.34 48 34 C47.85046875 33.39542969 47.7009375 32.79085937 47.546875 32.16796875 C46.8185335 29.28061495 45.48158784 28.24626315 43.25 26.3125 C42.57453125 25.71050781 41.8990625 25.10851562 41.203125 24.48828125 C38.77008267 22.8446835 36.88831319 22.37871239 34 22 C33.505 20.515 33.505 20.515 33 19 C32.01 18.67 31.02 18.34 30 18 C29.21625 17.34 28.4325 16.68 27.625 16 C24.86641862 13.89822371 23.35149155 13.51561408 20 13 C17.69400619 12.05047314 16.27672398 11.31445907 14.625 9.4375 C12.29597725 7.37721065 10.02461466 7.3360683 7 7 C7 6.34 7 5.68 7 5 C4.03 4.505 4.03 4.505 1 4 C0.67 2.68 0.34 1.36 0 0 Z " fill="#937347" transform="translate(79,2)"/>
<path d="M0 0 C0.66 0 1.32 0 2 0 C2 5.94 2 11.88 2 18 C2.66 18.33 3.32 18.66 4 19 C4.39310414 21.32288812 4.50749695 23.61845176 4.65625 25.96875 C4.82640625 26.97421875 4.82640625 26.97421875 5 28 C5.66 28.33 6.32 28.66 7 29 C9.28003407 32.28324906 10.43518386 35.04628701 11 39 C11.99 39.33 12.98 39.66 14 40 C14.13792969 40.59554687 14.27585937 41.19109375 14.41796875 41.8046875 C15.23558954 44.88859946 16.917959 46.06357845 19.3125 48.125 C20.48232422 49.14980469 20.48232422 49.14980469 21.67578125 50.1953125 C23.73556128 51.79467111 25.62642028 52.94628269 28 54 C28.0825 53.38125 28.165 52.7625 28.25 52.125 C29 50 29 50 31.0625 48.75 C31.701875 48.5025 32.34125 48.255 33 48 C31.68 50.31 30.36 52.62 29 55 C33.29 55 37.58 55 42 55 C42 55.33 42 55.66 42 56 C39.525 56.495 39.525 56.495 37 57 C38.14083176 60.03292954 38.14083176 60.03292954 40 63 C42.58414426 63.96906827 42.58414426 63.96906827 45 64 C45 64.33 45 64.66 45 65 C36.81920714 65.52217827 30.16059484 62.8422704 23 59 C22.34 58.67 21.68 58.34 21 58 C20.34 57.34 19.68 56.68 19 56 C17.515 55.505 17.515 55.505 16 55 C15 53 15 53 14 51 C13.01 50.67 12.02 50.34 11 50 C10.3125 47.9375 10.3125 47.9375 10 46 C9.34 46 8.68 46 8 46 C7.33333333 44 6.66666667 42 6 40 C5.484375 38.989375 4.96875 37.97875 4.4375 36.9375 C3 34 3 34 3 32 C2.34 31.67 1.68 31.34 1 31 C1.33 30.34 1.66 29.68 2 29 C1.34 28.67 0.68 28.34 0 28 C-1.01398984 22.22025792 -1.09732147 16.47769094 -1.125 10.625 C-1.12967285 9.9230249 -1.1343457 9.2210498 -1.13916016 8.49780273 C-1.12940923 5.3928814 -0.98927886 2.96783657 0 0 Z " fill="#957C59" transform="translate(6,47)"/>
<path d="M0 0 C0.99 0 1.98 0 3 0 C3.33 1.65 3.66 3.3 4 5 C4.66 5 5.32 5 6 5 C6.33 5.99 6.66 6.98 7 8 C7.99 9.485 7.99 9.485 9 11 C9.33 11.99 9.66 12.98 10 14 C11.86771223 15.94133325 11.86771223 15.94133325 13.5625 17.25 C15 19 15 19 16 25 C9.4 25 2.8 25 -4 25 C-4 24.34 -4 23.68 -4 23 C-4.66 23 -5.32 23 -6 23 C-7.32861328 21.25585938 -7.32861328 21.25585938 -8.8203125 18.84375 C-9.35527344 17.98652344 -9.89023438 17.12929687 -10.44140625 16.24609375 C-10.99699219 15.33988281 -11.55257812 14.43367188 -12.125 13.5 C-12.68832031 12.59378906 -13.25164062 11.68757813 -13.83203125 10.75390625 C-15.22779683 8.50648709 -16.61674298 6.25513194 -18 4 C-16.68 3.34 -15.36 2.68 -14 2 C-11.36 6.29 -8.72 10.58 -6 15 C-6.33 13.68 -6.66 12.36 -7 11 C-5.671875 8.203125 -5.671875 8.203125 -3.75 5.25 C-3.12609375 4.26515625 -2.5021875 3.2803125 -1.859375 2.265625 C-1.24578125 1.51796875 -0.6321875 0.7703125 0 0 Z M-13 8 C-12 10 -12 10 -12 10 Z " fill="#6D6A66" transform="translate(143,91)"/>
<path d="M0 0 C2.08304538 -0.05418326 4.16649768 -0.09287551 6.25 -0.125 C7.99023438 -0.15980469 7.99023438 -0.15980469 9.765625 -0.1953125 C12.82786046 -0.0103949 14.44202751 0.39176977 17 2 C17 3.98 17 5.96 17 8 C20.96 8.33 24.92 8.66 29 9 C29 9.33 29 9.66 29 10 C25.7 10.66 22.4 11.32 19 12 C22.32086771 14.77000825 22.32086771 14.77000825 26 17 C26.34342449 18.33076989 26.67619874 19.66431979 27 21 C27.66 21.66 28.32 22.32 29 23 C29 23.99 29 24.98 29 26 C26 28.1875 26 28.1875 23 30 C19.22727273 27.48484848 19.22727273 27.48484848 18.0625 25 C17.09357341 22.75364972 17.09357341 22.75364972 14.4375 21.5 C11.49155586 19.6871113 11.78774299 19.15097194 11 16 C10.175 15.505 9.35 15.01 8.5 14.5 C6 13 6 13 5.4375 10.9375 C5.293125 10.298125 5.14875 9.65875 5 9 C4.34 8.731875 3.68 8.46375 3 8.1875 C2.34 7.795625 1.68 7.40375 1 7 C0.25 3.375 0.25 3.375 0 0 Z " fill="#BC9A68" transform="translate(24,54)"/>
<path d="M0 0 C1.27423828 -0.00386719 2.54847656 -0.00773437 3.86132812 -0.01171875 C5.07884766 -0.01042969 6.29636719 -0.00914063 7.55078125 -0.0078125 C8.65719971 -0.00668457 9.76361816 -0.00555664 10.90356445 -0.00439453 C13.6875 0.125 13.6875 0.125 16.6875 1.125 C16.6875 2.775 16.6875 4.425 16.6875 6.125 C16.0275 6.125 15.3675 6.125 14.6875 6.125 C14.3575 7.445 14.0275 8.765 13.6875 10.125 C-4.6275 9.63 -4.6275 9.63 -23.3125 9.125 C-23.3125 3.125 -23.3125 3.125 -22.3125 1.125 C-14.96000846 -0.30742129 -7.46271437 -0.02299758 0 0 Z " fill="#FDE9B8" transform="translate(58.3125,27.875)"/>
<path d="M0 0 C0 3.15081975 -0.27898465 4.41847698 -2 7 C-4.125 7.75 -4.125 7.75 -6 8 C-6 8.66 -6 9.32 -6 10 C-7.32 10.33 -8.64 10.66 -10 11 C-10 11.66 -10 12.32 -10 13 C-12 13.66666667 -14 14.33333333 -16 15 C-16.598125 15.66 -17.19625 16.32 -17.8125 17 C-20.57404181 19.52483823 -22.33187498 19.43600938 -26 20 C-27.02351563 20.32097656 -28.04703125 20.64195313 -29.1015625 20.97265625 C-42.52161927 25.12364942 -56.08019758 24.38144484 -70 24 C-69.67 23.34 -69.34 22.68 -69 22 C-66.79785156 21.54516602 -66.79785156 21.54516602 -63.890625 21.25390625 C-62.83117676 21.14022705 -61.77172852 21.02654785 -60.68017578 20.90942383 C-59.54821777 20.79493896 -58.41625977 20.6804541 -57.25 20.5625 C-49.08621272 19.67216764 -41.20337406 18.66165932 -33.2578125 16.55078125 C-31 16 -31 16 -28 16 C-27.67 15.34 -27.34 14.68 -27 14 C-25.35965807 13.27095914 -23.68698082 12.61344757 -22 12 C-12.83969865 8.56863829 -12.83969865 8.56863829 -6 2 C-5.01 2 -4.02 2 -3 2 C-2.01 1.34 -1.02 0.68 0 0 Z " fill="#B9986B" transform="translate(93,98)"/>
<path d="M0 0 C7.59 0.33 15.18 0.66 23 1 C23 1.33 23 1.66 23 2 C20.36 2 17.72 2 15 2 C15 4.31 15 6.62 15 9 C15.96824707 9.00410889 16.93649414 9.00821777 17.93408203 9.01245117 C21.5464307 9.03431893 25.15770187 9.08868513 28.76953125 9.15258789 C30.32899605 9.17570185 31.88861548 9.1901481 33.44824219 9.19555664 C35.69823832 9.20489571 37.94582478 9.24598512 40.1953125 9.29296875 C40.8861795 9.2890361 41.57704651 9.28510345 42.28884888 9.28105164 C47.86955681 9.44708789 50.16753149 11.2535665 54 15 C51 15 51 15 48 14 C45.3378533 13.96246888 42.70282388 13.98042514 40.04296875 14.04296875 C38.43946558 14.06536332 36.83594906 14.08681803 35.23242188 14.10742188 C32.71081346 14.14445746 30.18988851 14.18744374 27.66870117 14.24682617 C25.23085812 14.30154205 22.79377449 14.33047278 20.35546875 14.35546875 C19.23485298 14.39114204 19.23485298 14.39114204 18.09159851 14.42753601 C12.8664768 14.45349075 10.07407767 13.19360914 6 10 C5.34 9.67 4.68 9.34 4 9 C3.855625 8.38125 3.71125 7.7625 3.5625 7.125 C2.8986636 4.61717359 1.84004521 3.76004324 0 2 C0 1.34 0 0.68 0 0 Z " fill="#D1AD75" transform="translate(21,27)"/>
<path d="M0 0 C16.5 0 33 0 50 0 C49.67 0.66 49.34 1.32 49 2 C45.83984375 2.4140625 45.83984375 2.4140625 41.9375 2.625 C40.64714844 2.69976562 39.35679688 2.77453125 38.02734375 2.8515625 C37.02832031 2.90054688 36.02929688 2.94953125 35 3 C33.99782936 6.58327753 33.99782936 6.58327753 35 10 C29.39 10 23.78 10 18 10 C18 7.69 18 5.38 18 3 C14.68455701 1.89485234 11.79589889 1.67892369 8.3125 1.4375 C7.13300781 1.35371094 5.95351563 1.26992188 4.73828125 1.18359375 C3.83464844 1.12300781 2.93101563 1.06242187 2 1 C1.67 1.66 1.34 2.32 1 3 C0.67 2.01 0.34 1.02 0 0 Z " fill="#F5E3B9" transform="translate(22,53)"/>
<path d="M0 0 C2.4375 0.8125 2.4375 0.8125 5 2 C5.33 2.99 5.66 3.98 6 5 C5.58113525 5.4439209 5.16227051 5.8878418 4.73071289 6.34521484 C2.83889784 8.35288747 0.95066439 10.36389391 -0.9375 12.375 C-1.59685547 13.07367188 -2.25621094 13.77234375 -2.93554688 14.4921875 C-3.87817383 15.49765625 -3.87817383 15.49765625 -4.83984375 16.5234375 C-5.42113037 17.14138184 -6.00241699 17.75932617 -6.60131836 18.39599609 C-8.08630662 19.96363687 -8.08630662 19.96363687 -9 22 C-9.556875 21.814375 -10.11375 21.62875 -10.6875 21.4375 C-13.05608681 20.83463761 -13.05608681 20.83463761 -15.625 21.5625 C-16.40875 21.706875 -17.1925 21.85125 -18 22 C-18.66 21.34 -19.32 20.68 -20 20 C-18.93458984 18.93652344 -18.93458984 18.93652344 -17.84765625 17.8515625 C-15.97345158 15.978018 -14.10810269 14.09671677 -12.24609375 12.2109375 C-11.31925781 11.27507812 -10.39242187 10.33921875 -9.4375 9.375 C-8.96892578 8.89804688 -8.50035156 8.42109375 -8.01757812 7.9296875 C-5.48036368 5.3747303 -2.89201445 3.13668833 0 1 C0 0.67 0 0.34 0 0 Z " fill="#F1CF94" transform="translate(63,70)"/>
<path d="M0 0 C-0.54021907 4.45680734 -1.85981483 8.70815816 -5 12 C-7.72790446 12.84147053 -10.10833544 12.86230169 -13 13 C-13.99 13.66 -14.98 14.32 -16 15 C-17.66666667 15.66666667 -19.33333333 16.33333333 -21 17 C-21.99 17.66 -22.98 18.32 -24 19 C-25.32 19 -26.64 19 -28 19 C-28.33 17.68 -28.66 16.36 -29 15 C-28.43410156 14.87882812 -27.86820313 14.75765625 -27.28515625 14.6328125 C-26.55167969 14.46523438 -25.81820312 14.29765625 -25.0625 14.125 C-24.33160156 13.96257813 -23.60070312 13.80015625 -22.84765625 13.6328125 C-20.79299706 13.17038477 -20.79299706 13.17038477 -20 11 C-21.98 11 -23.96 11 -26 11 C-23.70029783 7.55044674 -22.96641964 7.41229729 -19.125 6.375 C-18.26132813 6.13523437 -17.39765625 5.89546875 -16.5078125 5.6484375 C-14.93866984 5.24270902 -13.36353427 4.85881218 -11.78125 4.5078125 C-9.51645322 3.86214675 -8.57094825 2.71376172 -7 1 C-4.53721199 -0.231394 -2.7204945 -0.07159196 0 0 Z " fill="#A59E93" transform="translate(169,47)"/>
<path d="M0 0 C-0.5259375 1.423125 -0.5259375 1.423125 -1.0625 2.875 C-2.35026777 5.87060172 -2.35026777 5.87060172 -1 8 C-6.83799592 9.69832609 -11.93107371 10.25287193 -18 10 C-18.99 7.69 -19.98 5.38 -21 3 C-18.6263603 2.49265716 -16.25142575 1.99397614 -13.875 1.5 C-13.20984375 1.35691406 -12.5446875 1.21382813 -11.859375 1.06640625 C-7.83943578 0.2387717 -4.10095101 -0.15330658 0 0 Z " fill="#F5EADA" transform="translate(63,100)"/>
<path d="M0 0 C3.21880138 1.60940069 4.84783813 3.07066857 7 6 C6.88916269 11.19230188 5.1851145 16.31761179 3 21 C1.68 20.67 0.36 20.34 -1 20 C-1.1546875 18.39125 -1.1546875 18.39125 -1.3125 16.75 C-1.97400493 13.14179128 -2.57483421 11.63604977 -5 9 C-4.34 7.68 -3.68 6.36 -3 5 C-2.34 5 -1.68 5 -1 5 C-0.67 3.35 -0.34 1.7 0 0 Z " fill="#F6D397" transform="translate(76,29)"/>
<path d="M0 0 C0.66 0 1.32 0 2 0 C3.125 3.75 3.125 3.75 2 6 C2.66 6 3.32 6 4 6 C4 7.32 4 8.64 4 10 C1.73452304 10.8918258 -0.53549778 11.76355285 -2.8125 12.625 C-3.45509766 12.88023438 -4.09769531 13.13546875 -4.75976562 13.3984375 C-6.64453125 14.1015625 -6.64453125 14.1015625 -10 15 C-10.99 14.34 -11.98 13.68 -13 13 C-12.7525 11.824375 -12.7525 11.824375 -12.5 10.625 C-11.9376293 8.11791961 -11.9376293 8.11791961 -12 6 C-8.04 4.35 -4.08 2.7 0 1 C0 0.67 0 0.34 0 0 Z " fill="#B9B4AE" transform="translate(73,93)"/>
<path d="M0 0 C1.65 0 3.3 0 5 0 C3.71479522 6.16898292 1.07393662 10.23152456 -3 15 C-3.45117188 15.54785156 -3.90234375 16.09570312 -4.3671875 16.66015625 C-6.55119059 18.45229276 -8.41988463 18.72024026 -11.1875 19.1875 C-12.08855469 19.34605469 -12.98960938 19.50460938 -13.91796875 19.66796875 C-14.60503906 19.77753906 -15.29210938 19.88710937 -16 20 C-12.24040592 15.59852401 -8.45189879 11.22731564 -4.61328125 6.89453125 C-1.53055952 3.78749589 -1.53055952 3.78749589 0 0 Z " fill="#E7C082" transform="translate(71,77)"/>
<path d="M0 0 C0.66 0.33 1.32 0.66 2 1 C1.2884375 1.6496875 1.2884375 1.6496875 0.5625 2.3125 C-1.23686957 4.02309613 -1.23686957 4.02309613 -2 7 C2.29 7 6.58 7 11 7 C11 7.33 11 7.66 11 8 C9.35 8.33 7.7 8.66 6 9 C7.14083176 12.03292954 7.14083176 12.03292954 9 15 C11.58414426 15.96906827 11.58414426 15.96906827 14 16 C14 16.33 14 16.66 14 17 C6.21151252 17.4971375 -0.51697914 15.39172381 -7 11 C-6.67 10.34 -6.34 9.68 -6 9 C-6.39938767 6.90178785 -6.39938767 6.90178785 -7 5 C-5.68 5.33 -4.36 5.66 -3 6 C-2.814375 5.071875 -2.814375 5.071875 -2.625 4.125 C-2 2 -2 2 0 0 Z " fill="#9F8562" transform="translate(37,95)"/>
<path d="M0 0 C0.33 0.99 0.66 1.98 1 3 C-6 17 -6 17 -10 22 C-11.69168697 24.31645773 -13.34573481 26.65645765 -15 29 C-15.66 28.34 -16.32 27.68 -17 27 C-17 26.01 -17 25.02 -17 24 C-17.99 24.99 -18.98 25.98 -20 27 C-20.66 26.67 -21.32 26.34 -22 26 C-21.401875 25.484375 -20.80375 24.96875 -20.1875 24.4375 C-17.75666763 22.03503891 -17.75666763 22.03503891 -16.6875 18.375 C-16.130625 17.26125 -15.57375 16.1475 -15 15 C-13.88625 14.690625 -12.7725 14.38125 -11.625 14.0625 C-7.0426709 12.71940354 -6.28657973 11.0656593 -4.06640625 7.04296875 C-3.53853516 6.03169922 -3.53853516 6.03169922 -3 5 C-2.401875 4.01 -1.80375 3.02 -1.1875 2 C-0.795625 1.34 -0.40375 0.68 0 0 Z " fill="#A69E92" transform="translate(171,45)"/>
<path d="M0 0 C4.43748635 -0.02896822 8.87494847 -0.04678788 13.3125 -0.0625 C14.57513672 -0.07087891 15.83777344 -0.07925781 17.13867188 -0.08789062 C18.95141602 -0.09272461 18.95141602 -0.09272461 20.80078125 -0.09765625 C21.91622314 -0.10289307 23.03166504 -0.10812988 24.1809082 -0.11352539 C27 0 27 0 30 1 C30 2.65 30 4.3 30 6 C29.34 6 28.68 6 28 6 C27.67 7.32 27.34 8.64 27 10 C24.36 9.67 21.72 9.34 19 9 C18.731875 8.030625 18.46375 7.06125 18.1875 6.0625 C17.795625 5.051875 17.40375 4.04125 17 3 C13.53287889 1.84429296 10.4585044 1.67164707 6.8125 1.4375 C5.54019531 1.35371094 4.26789062 1.26992188 2.95703125 1.18359375 C1.98121094 1.12300781 1.00539062 1.06242187 0 1 C0 0.67 0 0.34 0 0 Z " fill="#F8ECC6" transform="translate(45,28)"/>
<path d="M0 0 C0.99 0.66 1.98 1.32 3 2 C3.53366728 6.65052911 3.78019614 8.85571233 1.125 12.75 C0.073125 13.86375 0.073125 13.86375 -1 15 C-2.17574711 17.09989652 -2.17574711 17.09989652 -3 19 C-3.33 19.66 -3.66 20.32 -4 21 C-6.81071188 17.50790342 -8.0270472 15.81141598 -7.875 11.25 C-7 8 -7 8 -5 6 C-3.06201737 3.22739701 -3.06201737 3.22739701 -2 1 C-1.34 0.67 -0.68 0.34 0 0 Z " fill="#B4B1AE" transform="translate(102,25)"/>
<path d="M0 0 C3.3 0 6.6 0 10 0 C10.53122363 1.76774419 11.04964073 3.53934083 11.5625 5.3125 C11.85253906 6.29863281 12.14257812 7.28476562 12.44140625 8.30078125 C13 11 13 11 12 14 C9.125 13.8125 9.125 13.8125 6 13 C4.875 10.5625 4.875 10.5625 4 8 C1.98264795 6.65589738 1.98264795 6.65589738 0 6 C0.185625 5.38125 0.37125 4.7625 0.5625 4.125 C1.23686176 1.95839822 1.23686176 1.95839822 0 0 Z " fill="#AA8453" transform="translate(25,55)"/>
<path d="M0 0 C3.19675755 0.7309659 6.39229617 1.46645031 9.5859375 2.2109375 C11.56687665 2.66877469 13.55023247 3.11681859 15.5390625 3.5390625 C19.3276338 4.37623743 21.40110054 5.15358631 24 8 C25.66194453 8.35613097 27.328451 8.69208308 29 9 C29.33 9.66 29.66 10.32 30 11 C30.66 11.33 31.32 11.66 32 12 C35 14 35 14 36 17 C34.28125 17.69140625 34.28125 17.69140625 32 18 C29.84375 16.77734375 29.84375 16.77734375 27.5 14.9375 C19.08014454 8.73404767 10.13287943 4.55563773 0 2 C0 1.34 0 0.68 0 0 Z " fill="#C5B58A" transform="translate(82,3)"/>
<path d="M0 0 C0.99 0.33 1.98 0.66 3 1 C3 1.66 3 2.32 3 3 C3.9075 3.061875 4.815 3.12375 5.75 3.1875 C15.38433936 4.62198916 23.55686195 9.71734769 31.30859375 15.328125 C33.97821894 16.98646982 35.90827787 17.61844446 39 18 C39.495 19.98 39.495 19.98 40 22 C38.02 22 36.04 22 34 22 C33.505 20.515 33.505 20.515 33 19 C32.01 18.67 31.02 18.34 30 18 C29.21625 17.34 28.4325 16.68 27.625 16 C24.86641862 13.89822371 23.35149155 13.51561408 20 13 C17.69400619 12.05047314 16.27672398 11.31445907 14.625 9.4375 C12.29597725 7.37721065 10.02461466 7.3360683 7 7 C7 6.34 7 5.68 7 5 C4.03 4.505 4.03 4.505 1 4 C0.67 2.68 0.34 1.36 0 0 Z " fill="#4E4338" transform="translate(79,2)"/>
<path d="M0 0 C0 0.66 0 1.32 0 2 C-0.66 2 -1.32 2 -2 2 C-2.02578125 2.60328125 -2.0515625 3.2065625 -2.078125 3.828125 C-2.54274827 10.37508931 -2.54274827 10.37508931 -4.875 13.5625 C-7 15 -7 15 -10 15 C-11.3125 13.0625 -11.3125 13.0625 -12 10 C-9.37250201 3.35795573 -7.39904895 -0.19471181 0 0 Z " fill="#B6B1AC" transform="translate(122,53)"/>
<path d="M0 0 C1.65 0 3.3 0 5 0 C6.1875 1.6875 6.1875 1.6875 7 4 C5.625 6.5625 5.625 6.5625 4 9 C4 9.99 4 10.98 4 12 C2.71484375 13.7175293 2.71484375 13.7175293 0.9375 15.57421875 C0.30585937 16.24130859 -0.32578125 16.90839844 -0.9765625 17.59570312 C-1.64429688 18.28599609 -2.31203125 18.97628906 -3 19.6875 C-3.66773438 20.38939453 -4.33546875 21.09128906 -5.0234375 21.81445312 C-6.67577321 23.54940562 -8.3347315 25.27747207 -10 27 C-10.66 26.67 -11.32 26.34 -12 26 C-10.69791667 24.53515625 -9.39583333 23.0703125 -8.09375 21.60546875 C-6.71848759 19.910552 -6.71848759 19.910552 -7 17 C-5.38294679 15.00467185 -3.76753494 13.16363456 -2 11.3125 C-1.52304687 10.80138672 -1.04609375 10.29027344 -0.5546875 9.76367188 C0.62359915 8.50290516 1.81095253 7.25062314 3 6 C1.515 3.03 1.515 3.03 0 0 Z " fill="#6E5C49" transform="translate(65,69)"/>
<path d="M0 0 C0 0.66 0 1.32 0 2 C0.66 2.33 1.32 2.66 2 3 C-0.07937949 4.31914392 -2.16308019 5.63038213 -4.25 6.9375 C-4.83652344 7.31068359 -5.42304688 7.68386719 -6.02734375 8.06835938 C-8.95906265 9.8965661 -11.55480229 11.46275382 -15 12 C-15 10.35 -15 8.7 -15 7 C-14.01 6.67 -13.02 6.34 -12 6 C-12 5.34 -12 4.68 -12 4 C-7.9090934 0.68831371 -5.26371362 -0.50130606 0 0 Z " fill="#C5C2BE" transform="translate(141,64)"/>
<path d="M0 0 C5.62329079 -0.12365152 11.24578953 -0.2143631 16.87011719 -0.2746582 C18.78301783 -0.29979381 20.69582251 -0.33390784 22.60839844 -0.37719727 C25.35896473 -0.43789252 28.10826099 -0.46621845 30.859375 -0.48828125 C31.71368103 -0.51408768 32.56798706 -0.5398941 33.44818115 -0.56648254 C39.42152696 -0.56930051 39.42152696 -0.56930051 42.57128906 2.53051758 C43.04276367 3.34544678 43.51423828 4.16037598 44 5 C43.18305664 4.67330322 42.36611328 4.34660645 41.52441406 4.01000977 C37.47651712 2.84998278 33.77512489 2.76510586 29.609375 2.83984375 C28.43063812 2.8476461 28.43063812 2.8476461 27.22808838 2.85560608 C24.73519805 2.87331857 22.24273102 2.90449805 19.75 2.9375 C17.24302978 2.96512568 14.73611671 2.98980959 12.22906494 3.00868225 C10.67314418 3.02093525 9.11725452 3.03853499 7.5614624 3.06199646 C2.2234247 3.11171235 2.2234247 3.11171235 0 2 C0 1.34 0 0.68 0 0 Z " fill="#3B2E25" transform="translate(31,38)"/>
<path d="M0 0 C4.62 0 9.24 0 14 0 C12.515 1.98 12.515 1.98 11 4 C10.34 4 9.68 4 9 4 C9 4.66 9 5.32 9 6 C10.65 6.33 12.3 6.66 14 7 C14 7.33 14 7.66 14 8 C6.08 8.495 6.08 8.495 -2 9 C-1.67 8.01 -1.34 7.02 -1 6 C-0.34 6 0.32 6 1 6 C1.33 4.35 1.66 2.7 2 1 C1.34 0.67 0.68 0.34 0 0 Z " fill="#EDC689" transform="translate(55,55)"/>
<path d="M0 0 C2.08304538 -0.05418326 4.16649768 -0.09287551 6.25 -0.125 C7.99023438 -0.15980469 7.99023438 -0.15980469 9.765625 -0.1953125 C13 0 13 0 17 2 C16.67 6.95 16.34 11.9 16 17 C15.01 17.33 14.02 17.66 13 18 C12.34 16.68 11.68 15.36 11 14 C11.66 14 12.32 14 13 14 C12.855625 13.34 12.71125 12.68 12.5625 12 C11.87700084 8.34400449 11.43824485 4.69377805 11 1 C5.41499433 1.19898708 5.41499433 1.19898708 1 4 C0.67 2.68 0.34 1.36 0 0 Z " fill="#D7B075" transform="translate(24,54)"/>
<path d="M0 0 C0.66 0 1.32 0 2 0 C3.1574707 1.52539062 3.1574707 1.52539062 4.42578125 3.65625 C5.12670898 4.82027344 5.12670898 4.82027344 5.84179688 6.0078125 C6.32712891 6.83023438 6.81246094 7.65265625 7.3125 8.5 C8.26654927 10.0939762 9.22097404 11.6877277 10.17578125 13.28125 C10.64193848 14.06371094 11.1080957 14.84617187 11.58837891 15.65234375 C13.67970985 19.13042025 15.83381355 22.56818318 18 26 C15.83125748 25.49396008 14.00032373 25.00016187 12 24 C11.375 21.4375 11.375 21.4375 11 19 C10.01 18.67 9.02 18.34 8 18 C7.67 16.35 7.34 14.7 7 13 C6.01 13.33 5.02 13.66 4 14 C2 9.25 2 9.25 2 7 C1.67 6.01 1.34 5.02 1 4 C0.65772583 2.66893378 0.32248257 1.33599921 0 0 Z " fill="#373533" transform="translate(85,55)"/>
<path d="M0 0 C0.66 0 1.32 0 2 0 C3.20166016 1.55371094 3.20166016 1.55371094 4.5390625 3.734375 C5.03374023 4.53125732 5.52841797 5.32813965 6.03808594 6.14916992 C6.8236084 7.43658081 6.8236084 7.43658081 7.625 8.75 C8.70453706 10.4916249 9.78526842 12.23251009 10.8671875 13.97265625 C11.39795898 14.82875488 11.92873047 15.68485352 12.47558594 16.56689453 C15.53698257 21.45316596 18.76230198 26.22915674 22 31 C21.01 31 20.02 31 19 31 C18.34 30.34 17.68 29.68 17 29 C16.484375 28.525625 15.96875 28.05125 15.4375 27.5625 C14 26 14 26 13 23 C12.34 22.01 11.68 21.02 11 20 C10.67 19.01 10.34 18.02 10 17 C9.34 16.34 8.68 15.68 8 15 C7.33333333 13.66666667 6.66666667 12.33333333 6 11 C5.34 10.34 4.68 9.68 4 9 C0 2.81021898 0 2.81021898 0 0 Z " fill="#3A3936" transform="translate(93,40)"/>
<path d="M0 0 C-0.58413633 4.81912474 -2.2122882 8.08213476 -5 12 C-8.25 12.9375 -8.25 12.9375 -11 13 C-11 11 -11 11 -9.5 9.375 C-9.005 8.92125 -8.51 8.4675 -8 8 C-8.66 8 -9.32 8 -10 8 C-10.33 7.01 -10.66 6.02 -11 5 C-7.17906575 1.05170128 -5.52310605 -0.1453449 0 0 Z " fill="#B8B4AF" transform="translate(169,47)"/>
<path d="M0 0 C3.39524985 4.08540577 6.33366458 8.38289169 9.25 12.8125 C9.93835938 13.85180664 9.93835938 13.85180664 10.640625 14.91210938 C11.76254025 16.60666887 12.88156672 18.30314034 14 20 C13.67 20.66 13.34 21.32 13 22 C10.2803699 21.64850064 9.23402213 21.27945298 7.44433594 19.14233398 C6.96254883 18.35157471 6.48076172 17.56081543 5.984375 16.74609375 C5.45585937 15.89208984 4.92734375 15.03808594 4.3828125 14.15820312 C3.84398437 13.26037109 3.30515625 12.36253906 2.75 11.4375 C2.19570312 10.53580078 1.64140625 9.63410156 1.0703125 8.70507812 C-0.29750254 6.47648293 -1.65359867 4.24157456 -3 2 C-2.01 1.34 -1.02 0.68 0 0 Z M2 6 C3 8 3 8 3 8 Z " fill="#2F2E2D" transform="translate(128,93)"/>
<path d="M0 0 C0.66 0 1.32 0 2 0 C2 5.94 2 11.88 2 18 C2.66 18.33 3.32 18.66 4 19 C3.34 21.97 2.68 24.94 2 28 C-1.51440693 22.7283896 -1.15911859 16.9822778 -1.125 10.8125 C-1.12886719 10.10158203 -1.13273438 9.39066406 -1.13671875 8.65820312 C-1.13078494 5.50438116 -1.00443535 3.01330605 0 0 Z " fill="#B2A087" transform="translate(6,47)"/>
<path d="M0 0 C0.33 0.99 0.66 1.98 1 3 C0.45730469 3.45890625 -0.08539063 3.9178125 -0.64453125 4.390625 C-1.35996094 5.00421875 -2.07539063 5.6178125 -2.8125 6.25 C-3.52019531 6.85328125 -4.22789062 7.4565625 -4.95703125 8.078125 C-7.49937352 10.46977394 -9.43882359 12.87764719 -11 16 C-13.0625 16.625 -13.0625 16.625 -15 17 C-15 17.66 -15 18.32 -15 19 C-15.99 18.67 -16.98 18.34 -18 18 C-18.33 17.34 -18.66 16.68 -19 16 C-21.02463255 15.34786708 -21.02463255 15.34786708 -23 15 C-17.25 11 -17.25 11 -15 11 C-15 11.99 -15 12.98 -15 14 C-14.33613281 13.32453125 -13.67226562 12.6490625 -12.98828125 11.953125 C-11.66376953 10.61507812 -11.66376953 10.61507812 -10.3125 9.25 C-9.44238281 8.36828125 -8.57226562 7.4865625 -7.67578125 6.578125 C-5.21997532 4.21194702 -2.69858952 2.08107444 0 0 Z " fill="#BCB4A6" transform="translate(153,64)"/>
<path d="M0 0 C4.04396476 0.46661132 7.86123746 2.46210888 11 5 C12.4375 8.25 12.4375 8.25 13 11 C11.35 11.33 9.7 11.66 8 12 C7.67 11.01 7.34 10.02 7 9 C6.360625 8.855625 5.72125 8.71125 5.0625 8.5625 C4.381875 8.376875 3.70125 8.19125 3 8 C2.30062468 6.68352881 1.63270867 5.34977849 1 4 C0.01 3.67 -0.98 3.34 -2 3 C-1 1 -1 1 0 0 Z " fill="#876E4F" transform="translate(19,94)"/>
<path d="M0 0 C0.99 0 1.98 0 3 0 C3.33 1.65 3.66 3.3 4 5 C4.66 5 5.32 5 6 5 C5.67 5.99 5.34 6.98 5 8 C3.35 8 1.7 8 0 8 C-2.12046792 11.53411321 -2.53199289 14.94393835 -3 19 C-5 18 -5 18 -6.5625 15.125 C-7.3924093 12.11343519 -6.99593879 10.99110117 -5.671875 8.08984375 C-3.90881584 5.21931675 -2.22250693 2.53411614 0 0 Z " fill="#86827E" transform="translate(143,91)"/>
<path d="M0 0 C0.66 0.66 1.32 1.32 2 2 C1 4 0 6 -1 8 C-1.4640625 9.0209375 -1.4640625 9.0209375 -1.9375 10.0625 C-3 12 -3 12 -5 13 C-6.2236068 15.0745356 -6.2236068 15.0745356 -6 18 C-12.75 20.125 -12.75 20.125 -15 19 C-15.33 19.66 -15.66 20.32 -16 21 C-19.0625 21.625 -19.0625 21.625 -22 22 C-21.505 20.515 -21.505 20.515 -21 19 C-17.9552593 18.11213747 -14.90598456 17.5970175 -11.78515625 17.0390625 C-8.80881007 16.28483223 -8.80881007 16.28483223 -7.77734375 13.62109375 C-7.52082031 12.75613281 -7.26429687 11.89117187 -7 11 C-5.78125 9.12109375 -5.78125 9.12109375 -4.5 7.4375 C-2.72668979 5.04170037 -1.20659711 2.74226616 0 0 Z " fill="#625141" transform="translate(76,78)"/>
<path d="M0 0 C2.4375 0.1875 2.4375 0.1875 5 1 C6.3125 3.0625 6.3125 3.0625 7 5 C6.01 6.485 6.01 6.485 5 8 C4.443125 7.814375 3.88625 7.62875 3.3125 7.4375 C0.94391319 6.83463761 0.94391319 6.83463761 -1.625 7.5625 C-2.40875 7.706875 -3.1925 7.85125 -4 8 C-4.66 7.34 -5.32 6.68 -6 6 C-4 4 -2 2 0 0 Z " fill="#D8B074" transform="translate(49,84)"/>
<path d="M0 0 C0 0.66 0 1.32 0 2 C-9.24 2 -18.48 2 -28 2 C-27.67 1.34 -27.34 0.68 -27 0 C-18.46268249 -2.27266554 -8.69244708 -0.65546295 0 0 Z " fill="#7E6D58" transform="translate(51,120)"/>
<path d="M0 0 C0.99 0.33 1.98 0.66 3 1 C3.28875 1.639375 3.5775 2.27875 3.875 2.9375 C5.4012479 5.73562115 7.06908422 5.92771374 10 7 C11.8125 8.625 11.8125 8.625 13 10 C12.67 10.66 12.34 11.32 12 12 C11.401875 11.835 10.80375 11.67 10.1875 11.5 C7.88655664 10.8885876 7.88655664 10.8885876 5 11 C0.43478261 6.86956522 0.43478261 6.86956522 -1 4 C-0.5625 1.875 -0.5625 1.875 0 0 Z " fill="#8A7353" transform="translate(118,18)"/>
<path d="M0 0 C3.65316671 1.24976756 4.78065836 1.67098753 7 5 C6.67 5.99 6.34 6.98 6 8 C6 7.34 6 6.68 6 6 C4.01508358 6.26676204 4.01508358 6.26676204 2 7 C1.67 7.99 1.34 8.98 1 10 C0.34 10 -0.32 10 -1 10 C-1.33 10.66 -1.66 11.32 -2 12 C-3.1875 9.8125 -3.1875 9.8125 -4 7 C-2.6875 4.3125 -2.6875 4.3125 -1 2 C-0.67 1.34 -0.34 0.68 0 0 Z " fill="#DAB178" transform="translate(82,63)"/>
<path d="M0 0 C-2.31 0.66 -4.62 1.32 -7 2 C-6.34 2.33 -5.68 2.66 -5 3 C-5 3.66 -5 4.32 -5 5 C-11.93 4.67 -18.86 4.34 -26 4 C-26 3.67 -26 3.34 -26 3 C-22.4192122 2.29876984 -18.8350783 1.6164242 -15.25 0.9375 C-13.72632813 0.63875977 -13.72632813 0.63875977 -12.171875 0.33398438 C-10.70234375 0.05844727 -10.70234375 0.05844727 -9.203125 -0.22265625 C-8.30239258 -0.39547119 -7.40166016 -0.56828613 -6.47363281 -0.74633789 C-3.9979814 -1.000207 -2.34682951 -0.7687064 0 0 Z " fill="#C0A57B" transform="translate(62,116)"/>
<path d="M0 0 C6.53442034 -0.60255925 10.89135242 -0.14590536 16.40625 3.515625 C18.20040423 5.186651 19.04243673 6.75930196 20 9 C19.01 9.33 18.02 9.66 17 10 C16.896875 9.360625 16.79375 8.72125 16.6875 8.0625 C16.460625 7.381875 16.23375 6.70125 16 6 C8.66510831 3.49744115 8.66510831 3.49744115 1 3 C0.67 2.01 0.34 1.02 0 0 Z " fill="#4D4339" transform="translate(59,63)"/>
<path d="M0 0 C2.78489278 1.39244639 4.12301529 3.55991988 6 6 C4.68 5.67 3.36 5.34 2 5 C0.25024533 6.46043394 0.25024533 6.46043394 -1 9 C-0.96846324 12.05380927 -0.53266629 14.99653222 0 18 C-0.44085938 17.08734375 -0.44085938 17.08734375 -0.890625 16.15625 C-2.00091966 13.87883276 -2.00091966 13.87883276 -3.75 11.5 C-4.1625 10.675 -4.575 9.85 -5 9 C-4.1875 6.6875 -4.1875 6.6875 -3 5 C-2.34 5 -1.68 5 -1 5 C-0.67 3.35 -0.34 1.7 0 0 Z " fill="#E4CB9A" transform="translate(76,29)"/>
<path d="M0 0 C0 3.15081975 -0.27898465 4.41847698 -2 7 C-4.125 7.75 -4.125 7.75 -6 8 C-6 8.66 -6 9.32 -6 10 C-8.31 10.33 -10.62 10.66 -13 11 C-11.86848239 7.60544716 -10.5712768 6.42002522 -8 4 C-7.4225 3.4225 -6.845 2.845 -6.25 2.25 C-5.8375 1.8375 -5.425 1.425 -5 1 C-4.01 1.33 -3.02 1.66 -2 2 C-1.34 1.34 -0.68 0.68 0 0 Z " fill="#ACA48A" transform="translate(93,98)"/>
<path d="M0 0 C1.98 0 3.96 0 6 0 C6.66 2.97 7.32 5.94 8 9 C2.55122777 8.51566469 2.55122777 8.51566469 0.0625 6.1875 C-1 4 -1 4 -0.6875 1.75 C-0.460625 1.1725 -0.23375 0.595 0 0 Z " fill="#8A7862" transform="translate(137,45)"/>
<path d="M0 0 C0.33 0.99 0.66 1.98 1 3 C-0.27358732 4.71275535 -1.61423077 6.37667033 -3 8 C-4.17574711 10.09989652 -4.17574711 10.09989652 -5 12 C-5.33 12.66 -5.66 13.32 -6 14 C-10 8.25 -10 8.25 -10 6 C-8.63875 5.62875 -8.63875 5.62875 -7.25 5.25 C-3.89648511 3.96018658 -2.32291764 2.68028958 0 0 Z " fill="#C0BAB5" transform="translate(104,32)"/>
<path d="M0 0 C0 0.99 0 1.98 0 3 C0.99 3.33 1.98 3.66 3 4 C0 6 0 6 -3 7 C-3.556875 7.680625 -4.11375 8.36125 -4.6875 9.0625 C-8.11890987 11.93746503 -10.61279047 11.29248064 -15 11 C-12.45202629 7.8858099 -9.76978646 7.17805827 -6 6 C-5.01 5.34 -4.02 4.68 -3 4 C-3.33 3.01 -3.66 2.02 -4 1 C-2 0 -2 0 0 0 Z " fill="#938060" transform="translate(80,106)"/>
<path d="M0 0 C-3.2 6.64615385 -3.2 6.64615385 -7.25 8.4375 C-8.61125 8.7159375 -8.61125 8.7159375 -10 9 C-9.47731534 6.23723823 -8.89130413 3.6739124 -8 1 C-4.68510482 -0.74468167 -3.63361056 -1.21120352 0 0 Z " fill="#B3AEAA" transform="translate(121,75)"/>
<path d="M0 0 C0.66 0.33 1.32 0.66 2 1 C1.67 1.66 1.34 2.32 1 3 C0.01 3 -0.98 3 -2 3 C-2.33 4.32 -2.66 5.64 -3 7 C-2.34 7 -1.68 7 -1 7 C0.32421875 8.6796875 0.32421875 8.6796875 1.6875 10.875 C2.14511719 11.59429687 2.60273438 12.31359375 3.07421875 13.0546875 C3.53248047 14.01761719 3.53248047 14.01761719 4 15 C3.67 15.66 3.34 16.32 3 17 C1.125 16.375 1.125 16.375 -1 15 C-2.25 11.875 -2.25 11.875 -3 9 C-3.66 9 -4.32 9 -5 9 C-5.33 7.35 -5.66 5.7 -6 4 C-4.02 2.68 -2.04 1.36 0 0 Z " fill="#BEB8B1" transform="translate(128,80)"/>
<path d="M0 0 C1.32 0 2.64 0 4 0 C5.8125 2.375 5.8125 2.375 7 5 C6.67 5.66 6.34 6.32 6 7 C4.68 7 3.36 7 2 7 C0.36323743 8.9600281 0.36323743 8.9600281 -1 11 C-1.66 11 -2.32 11 -3 11 C-2.25 4.25 -2.25 4.25 0 2 C0 1.34 0 0.68 0 0 Z " fill="#CFCBC7" transform="translate(89,43)"/>
<path d="M0 0 C2 2 2 2 2 6 C2.66 6.33 3.32 6.66 4 7 C4.72159424 8.64363134 5.39351421 10.31050386 6 12 C2.62537285 11.45276317 0.91765 10.9451 -2 9 C-1.67 8.34 -1.34 7.68 -1 7 C-1.66 6.67 -2.32 6.34 -3 6 C-2.34 6 -1.68 6 -1 6 C-1.0309375 4.7934375 -1.0309375 4.7934375 -1.0625 3.5625 C-1 1 -1 1 0 0 Z " fill="#977F5E" transform="translate(9,69)"/>
<path d="M0 0 C2.31 0 4.62 0 7 0 C7 0.99 7 1.98 7 3 C4.5 5.1875 4.5 5.1875 2 7 C0.68 6.01 -0.64 5.02 -2 4 C-1.34 2.68 -0.68 1.36 0 0 Z " fill="#E7BE7E" transform="translate(54,81)"/>
<path d="M0 0 C0.66 0.66 1.32 1.32 2 2 C-2.95 7.28 -7.9 12.56 -13 18 C-13.66 17.67 -14.32 17.34 -15 17 C-14.16855469 16.10796875 -13.33710937 15.2159375 -12.48046875 14.296875 C-11.38271261 13.11467608 -10.2850619 11.93237926 -9.1875 10.75 C-8.64029297 10.16347656 -8.09308594 9.57695313 -7.52929688 8.97265625 C-4.85219687 6.08463321 -2.27491168 3.22478709 0 0 Z " fill="#000000" transform="translate(68,78)"/>
<path d="M0 0 C2.4375 0.8125 2.4375 0.8125 5 2 C5.33 2.99 5.66 3.98 6 5 C3.03 7.475 3.03 7.475 0 10 C-1.125 8.375 -1.125 8.375 -2 6 C-1.125 2.75 -1.125 2.75 0 0 Z " fill="#E1C188" transform="translate(63,70)"/>
<path d="M0 0 C0 2.64 0 5.28 0 8 C-0.99 8.33 -1.98 8.66 -3 9 C-3.144375 8.38125 -3.28875 7.7625 -3.4375 7.125 C-3.93152225 4.96741678 -3.93152225 4.96741678 -5 3 C-5.99 3 -6.98 3 -8 3 C-7.67 2.01 -7.34 1.02 -7 0 C-4.3333581 -1.33332095 -2.83319697 -0.67102033 0 0 Z " fill="#A7A39F" transform="translate(98,84)"/>
<path d="M0 0 C2 0 2 0 3.6875 1.25 C5 3 5 3 4.875 5 C3.90943569 7.20700414 2.80627247 8.42932829 1 10 C0.67 8.35 0.34 6.7 0 5 C-0.99 5.99 -1.98 6.98 -3 8 C-3.66 7.67 -4.32 7.34 -5 7 C-4.0409375 6.1028125 -4.0409375 6.1028125 -3.0625 5.1875 C-0.79689611 3.09189663 -0.79689611 3.09189663 0 0 Z " fill="#6C6255" transform="translate(154,64)"/>
<path d="M0 0 C2.375 0.3125 2.375 0.3125 5 1 C5.66 1.99 6.32 2.98 7 4 C6.01 4.33 5.02 4.66 4 5 C2.30117552 7.49759982 2.30117552 7.49759982 1 10 C0.01 9.34 -0.98 8.68 -2 8 C-0.79618552 5.50638429 0.45428722 3.31856917 2 1 C1.34 0.67 0.68 0.34 0 0 Z " fill="#EAC48B" transform="translate(78,60)"/>
<path d="M0 0 C0.90492187 0.02320312 1.80984375 0.04640625 2.7421875 0.0703125 C4.10730469 0.09738281 4.10730469 0.09738281 5.5 0.125 C6.19867188 0.14820312 6.89734375 0.17140625 7.6171875 0.1953125 C7.6171875 0.5253125 7.6171875 0.8553125 7.6171875 1.1953125 C4.9771875 1.1953125 2.3371875 1.1953125 -0.3828125 1.1953125 C-0.3828125 3.5053125 -0.3828125 5.8153125 -0.3828125 8.1953125 C-2.0328125 8.5253125 -3.6828125 8.8553125 -5.3828125 9.1953125 C-4.40119485 0.36075368 -4.40119485 0.36075368 0 0 Z " fill="#CAAA7C" transform="translate(36.3828125,27.8046875)"/>
<path d="M0 0 C1.98 0 3.96 0 6 0 C5.649375 0.94875 5.29875 1.8975 4.9375 2.875 C3.64973223 5.87060172 3.64973223 5.87060172 5 8 C3.68 8.33 2.36 8.66 1 9 C-0.125 5.25 -0.125 5.25 1 3 C0.34 2.67 -0.32 2.34 -1 2 C-0.67 1.34 -0.34 0.68 0 0 Z " fill="#D2CCC5" transform="translate(57,100)"/>
<path d="M0 0 C4.29 0 8.58 0 13 0 C13 0.33 13 0.66 13 1 C11.35 1.33 9.7 1.66 8 2 C8.66 3.65 9.32 5.3 10 7 C9.01 7.495 9.01 7.495 8 8 C6.5 6.6875 6.5 6.6875 5 5 C5 4.01 5 3.02 5 2 C3.35 1.67 1.7 1.34 0 1 C0 0.67 0 0.34 0 0 Z " fill="#C6AC88" transform="translate(35,102)"/>
<path d="M0 0 C4.17882671 2.56428003 7.12505529 5.01930733 10 9 C9.443125 8.690625 8.88625 8.38125 8.3125 8.0625 C5.86348466 6.93727674 3.64437145 6.47463077 1 6 C0.01 5.67 -0.98 5.34 -2 5 C-1.34 3.35 -0.68 1.7 0 0 Z " fill="#A9906B" transform="translate(16,88)"/>
<path d="M0 0 C1 3 1 3 1 5 C1.66 5.33 2.32 5.66 3 6 C-2.75 9 -2.75 9 -5 9 C-5 7.35 -5 5.7 -5 4 C-4.01 3.67 -3.02 3.34 -2 3 C-2 2.34 -2 1.68 -2 1 C-1.34 0.67 -0.68 0.34 0 0 Z " fill="#E3DFDC" transform="translate(131,67)"/>
<path d="M0 0 C1.0013988 3.00419641 1.51421457 5.87709365 2 9 C0.35 9.33 -1.3 9.66 -3 10 C-2.67 9.01 -2.34 8.02 -2 7 C-2.66 7 -3.32 7 -4 7 C-4 5.35 -4 3.7 -4 2 C-2.68 1.34 -1.36 0.68 0 0 Z " fill="#D3CDC7" transform="translate(79,92)"/>
<path d="M0 0 C0.66 0.33 1.32 0.66 2 1 C2.34342449 2.33076989 2.67619874 3.66431979 3 5 C3.66 5.66 4.32 6.32 5 7 C5 7.99 5 8.98 5 10 C2 12.1875 2 12.1875 -1 14 C-1 11 -1 11 1 9 C0.63292383 7.11280345 0.63292383 7.11280345 0 5 C-0.03786901 3.33376361 -0.04627845 1.66602403 0 0 Z " fill="#9D8B6E" transform="translate(48,70)"/>
<path d="M0 0 C-5.5 4 -5.5 4 -10 4 C-10.33 2.68 -10.66 1.36 -11 0 C-3.375 -2.25 -3.375 -2.25 0 0 Z " fill="#AFACA8" transform="translate(151,62)"/>
<path d="M0 0 C-2.68092691 2.68092691 -4.39167363 2.38670257 -8.125 2.625 C-9.22070312 2.69976562 -10.31640625 2.77453125 -11.4453125 2.8515625 C-12.28835937 2.90054688 -13.13140625 2.94953125 -14 3 C-11.5266957 -0.70995646 -10.12495776 -0.86523672 -5.9765625 -1.79296875 C-3.44875549 -2.05773905 -2.02252826 -1.5168962 0 0 Z " fill="#D1C5B0" transform="translate(157,55)"/>
<path d="M0 0 C0 1.32 0 2.64 0 4 C-4.65537393 4.83796731 -8.37078475 5.0161692 -13 4 C-9.06512611 1.79647062 -4.5498921 0 0 0 Z " fill="#AA7C44" transform="translate(64,115)"/>
<path d="M0 0 C1.32 0.33 2.64 0.66 4 1 C4.9765625 7.0546875 4.9765625 7.0546875 5 9 C4.34 9.66 3.68 10.32 3 11 C3 8.03 3 5.06 3 2 C1.35 3.65 -0.3 5.3 -2 7 C-2.99 6.67 -3.98 6.34 -5 6 C-3.35 4.02 -1.7 2.04 0 0 Z " fill="#CBA773" transform="translate(86,70)"/>
<path d="M0 0 C0.33 0.99 0.66 1.98 1 3 C0.44570312 3.48210937 -0.10859375 3.96421875 -0.6796875 4.4609375 C-1.40414062 5.09257813 -2.12859375 5.72421875 -2.875 6.375 C-3.59429687 7.00148438 -4.31359375 7.62796875 -5.0546875 8.2734375 C-6.4076598 9.47426834 -7.7208345 10.7208345 -9 12 C-9.99 11.67 -10.98 11.34 -12 11 C-8.17426612 7.07503959 -4.38002676 3.31820209 0 0 Z " fill="#F0DCB4" transform="translate(153,64)"/>
<path d="M0 0 C1.65 0 3.3 0 5 0 C3.375 6.75 3.375 6.75 0 9 C-0.33 8.34 -0.66 7.68 -1 7 C-0.67 6.34 -0.34 5.68 0 5 C-0.66 4.67 -1.32 4.34 -2 4 C-1.34 2.68 -0.68 1.36 0 0 Z " fill="#D1B686" transform="translate(71,77)"/>
<path d="M0 0 C1.32 0 2.64 0 4 0 C6 6 6 6 6 9 C3.69 9.33 1.38 9.66 -1 10 C0.32 9.34 1.64 8.68 3 8 C2.67 6.02 2.34 4.04 2 2 C1.34 2 0.68 2 0 2 C0 1.34 0 0.68 0 0 Z " fill="#BEBBB8" transform="translate(123,61)"/>
<path d="M0 0 C2.08473947 0.45189439 4.16775036 0.91176825 6.25 1.375 C7.41015625 1.63023438 8.5703125 1.88546875 9.765625 2.1484375 C12.46052401 2.85796405 14.59525832 3.63096389 17 5 C17 5.66 17 6.32 17 7 C13.08878502 6.31063929 9.44491404 5.21749819 5.6875 3.9375 C4.61886719 3.57527344 3.55023438 3.21304687 2.44921875 2.83984375 C1.23685547 2.42412109 1.23685547 2.42412109 0 2 C0 1.34 0 0.68 0 0 Z " fill="#D7D0B8" transform="translate(82,3)"/>
<path d="M0 0 C4.0042343 3.49087093 5.62671065 5.64951939 6 11 C3.5625 10.25 3.5625 10.25 1 9 C0.25 7.125 0.25 7.125 0 5 C-0.20625 4.278125 -0.4125 3.55625 -0.625 2.8125 C-0.74875 2.214375 -0.8725 1.61625 -1 1 C-0.67 0.67 -0.34 0.34 0 0 Z " fill="#CDAE82" transform="translate(41,72)"/>
<path d="M0 0 C0.66 0 1.32 0 2 0 C2.33 1.98 2.66 3.96 3 6 C5.31 6 7.62 6 10 6 C10 6.33 10 6.66 10 7 C3.72307692 8.35384615 3.72307692 8.35384615 0.0625 6.5625 C-0.618125 6.046875 -1.29875 5.53125 -2 5 C-1.34 3.35 -0.68 1.7 0 0 Z " fill="#A7875C" transform="translate(27,31)"/>
<path d="M0 0 C1.98 0 3.96 0 6 0 C6 2.64 6 5.28 6 8 C3.03 7.505 3.03 7.505 0 7 C0.33 6.38125 0.66 5.7625 1 5.125 C2.14193235 3.08981656 2.14193235 3.08981656 2 1 C1.34 0.67 0.68 0.34 0 0 Z " fill="#E1DAD2" transform="translate(52,101)"/>
<path d="M0 0 C2.98704569 0.49784095 4.39324263 1.26216175 7 3 C6.67 3.99 6.34 4.98 6 6 C3.36 5.01 0.72 4.02 -2 3 C-1 1 -1 1 0 0 Z " fill="#755835" transform="translate(19,94)"/>
<path d="M0 0 C1.73736659 2.60604988 2.45003827 4.07233236 3.1875 7 C3.36667969 7.680625 3.54585937 8.36125 3.73046875 9.0625 C4 11 4 11 3 14 C-1.33996815 5.50875796 -1.33996815 5.50875796 0 0 Z " fill="#C29556" transform="translate(34,55)"/>
<path d="M0 0 C1.40907283 2.81814566 0.50872691 4.17277204 -0.4375 7.125 C-0.72496094 8.03507812 -1.01242188 8.94515625 -1.30859375 9.8828125 C-1.53675781 10.58148438 -1.76492187 11.28015625 -2 12 C-2.99 11.67 -3.98 11.34 -5 11 C-3.77472971 6.94718288 -2.30119506 3.55639236 0 0 Z " fill="#EFC78A" transform="translate(81,38)"/>
<path d="M0 0 C1.32 0.33 2.64 0.66 4 1 C3.67 3.97 3.34 6.94 3 10 C-0.00617269 6.99382731 0.40414684 4.17618402 0 0 Z " fill="#EAC07E" transform="translate(37,55)"/>
<path d="M0 0 C2 1 2 1 5 3 C5.33 3.99 5.66 4.98 6 6 C4.25 6.75 4.25 6.75 2 7 C-0.25 5.0625 -0.25 5.0625 -2 3 C-1.34 2.01 -0.68 1.02 0 0 Z " fill="#BCA47E" transform="translate(112,14)"/>
<path d="M0 0 C3.3 0.66 6.6 1.32 10 2 C8 4 8 4 5.3984375 4.1953125 C4.40070312 4.17210938 3.40296875 4.14890625 2.375 4.125 C0.87066406 4.09792969 0.87066406 4.09792969 -0.6640625 4.0703125 C-1.43492188 4.04710938 -2.20578125 4.02390625 -3 4 C-2.34 3.67 -1.68 3.34 -1 3 C-0.67 2.01 -0.34 1.02 0 0 Z " fill="#A17F56" transform="translate(40,96)"/>
<path d="M0 0 C2 1 2 1 3.125 4.0625 C3.41375 5.031875 3.7025 6.00125 4 7 C3.401875 6.835 2.80375 6.67 2.1875 6.5 C-0.11344336 5.8885876 -0.11344336 5.8885876 -3 6 C-1.125 1.125 -1.125 1.125 0 0 Z " fill="#C6995B" transform="translate(50,85)"/>
<path d="M0 0 C1.98 0.495 1.98 0.495 4 1 C4.33 2.65 4.66 4.3 5 6 C2 6 2 6 -1 5 C-0.67 4.34 -0.34 3.68 0 3 C0 2.01 0 1.02 0 0 Z " fill="#A08158" transform="translate(31,62)"/>
<path d="M0 0 C2.31 0.33 4.62 0.66 7 1 C5.35 2.98 3.7 4.96 2 7 C1.01 6.67 0.02 6.34 -1 6 C-0.34 6 0.32 6 1 6 C1.33 4.35 1.66 2.7 2 1 C1.34 0.67 0.68 0.34 0 0 Z " fill="#F5D196" transform="translate(55,55)"/>
<path d="M0 0 C0.66 0 1.32 0 2 0 C3.5078125 2.1875 3.5078125 2.1875 5.125 5 C5.66382812 5.928125 6.20265625 6.85625 6.7578125 7.8125 C7.37269531 8.8953125 7.37269531 8.8953125 8 10 C7.01 10.495 7.01 10.495 6 11 C3.27698513 8.27698513 1.82192021 5.40091772 0 2 C0 1.34 0 0.68 0 0 Z " fill="#524F4A" transform="translate(93,40)"/>
<path d="M0 0 C0.99 0 1.98 0 3 0 C3 1.98 3 3.96 3 6 C1.02 6.66 -0.96 7.32 -3 8 C-2.690625 7.236875 -2.38125 6.47375 -2.0625 5.6875 C-1.32106407 3.81210323 -0.63771783 1.91315348 0 0 Z " fill="#C5BFBB" transform="translate(120,73)"/>
<path d="M0 0 C0.66 0 1.32 0 2 0 C2 1.32 2 2.64 2 4 C2.66 4 3.32 4 4 4 C3.67 4.99 3.34 5.98 3 7 C1.68 6.67 0.36 6.34 -1 6 C-1.042721 4.33388095 -1.04063832 2.66617115 -1 1 C-0.67 0.67 -0.34 0.34 0 0 Z " fill="#F7D497" transform="translate(36,30)"/>
<path d="M0 0 C-0.33 0.99 -0.66 1.98 -1 3 C-1.99 2.67 -2.98 2.34 -4 2 C-4.33 2.66 -4.66 3.32 -5 4 C-8.0625 4.625 -8.0625 4.625 -11 5 C-10.67 4.01 -10.34 3.02 -10 2 C-6.54310037 0.78368346 -3.67168136 0 0 0 Z " fill="#9C815E" transform="translate(65,95)"/>
<path d="M0 0 C0.66 0.33 1.32 0.66 2 1 C0.35 2.98 -1.3 4.96 -3 7 C-3.33 6.34 -3.66 5.68 -4 5 C-6.02463255 4.34786708 -6.02463255 4.34786708 -8 4 C-7.34 3.34 -6.68 2.68 -6 2 C-4.68 2.66 -3.36 3.32 -2 4 C-1.34 2.68 -0.68 1.36 0 0 Z " fill="#947654" transform="translate(56,88)"/>
<path d="M0 0 C0.99 0.33 1.98 0.66 3 1 C3 1.66 3 2.32 3 3 C4.32 3 5.64 3 7 3 C7 4.65 7 6.3 7 8 C6.34 7.67 5.68 7.34 5 7 C5 6.34 5 5.68 5 5 C4.34 5 3.68 5 3 5 C2.67 5.66 2.34 6.32 2 7 C0.5393715 4.35261084 0 3.10551666 0 0 Z " fill="#B09269" transform="translate(9,78)"/>
<path d="M0 0 C1.32 0.66 2.64 1.32 4 2 C3.34 3.65 2.68 5.3 2 7 C1.01 7 0.02 7 -1 7 C-2 4 -2 4 -1.0625 1.8125 C-0.5365625 0.9153125 -0.5365625 0.9153125 0 0 Z " fill="#D3D0CD" transform="translate(133,65)"/>
<path d="M0 0 C1.65 0 3.3 0 5 0 C5.98120464 3.05263664 5.98120464 4.94736336 5 8 C4.34 7.67 3.68 7.34 3 7 C3.33 6.34 3.66 5.68 4 5 C3.34 5 2.68 5 2 5 C2 3.68 2 2.36 2 1 C1.34 0.67 0.68 0.34 0 0 Z " fill="#FDE5AF" transform="translate(36,29)"/>
<path d="M0 0 C3.63 0.33 7.26 0.66 11 1 C11 1.33 11 1.66 11 2 C9.35 2.33 7.7 2.66 6 3 C5.67 3.99 5.34 4.98 5 6 C3.2925002 4.71937515 1.62626404 3.38232443 0 2 C0 1.34 0 0.68 0 0 Z " fill="#CEB896" transform="translate(21,27)"/>
<path d="M0 0 C0.99 0.33 1.98 0.66 3 1 C4.1875 3.5625 4.1875 3.5625 5 6 C4.01 6.66 3.02 7.32 2 8 C0.4375 6.8125 0.4375 6.8125 -1 5 C-0.6875 2.3125 -0.6875 2.3125 0 0 Z " fill="#A48C6A" transform="translate(118,18)"/>
<path d="M0 0 C0 1.65 0 3.3 0 5 C-2.90600261 6.25664978 -4.79604584 7 -8 7 C-6.8572081 5.83035398 -5.71068285 4.66435444 -4.5625 3.5 C-3.92441406 2.8503125 -3.28632812 2.200625 -2.62890625 1.53125 C-1 0 -1 0 0 0 Z " fill="#F6D99D" transform="translate(58,76)"/>
<path d="M0 0 C0.33 0 0.66 0 1 0 C0.50769231 7.50769231 0.50769231 7.50769231 -2.0625 10 C-3.0215625 10.495 -3.0215625 10.495 -4 11 C-3.21681311 7.08406554 -1.60820142 3.63593365 0 0 Z M-6 11 C-4 12 -4 12 -4 12 Z " fill="#C6C1BD" transform="translate(119,56)"/>
<path d="M0 0 C2 1 2 1 2.6875 2.8125 C3.02688538 5.18819767 2.72856341 6.73335829 2 9 C-2 3.25 -2 3.25 -2 1 C-1.34 0.67 -0.68 0.34 0 0 Z " fill="#D9D2C9" transform="translate(96,37)"/>
<path d="M0 0 C1.32 0 2.64 0 4 0 C4.33 2.31 4.66 4.62 5 7 C4.01 6.67 3.02 6.34 2 6 C0.8125 2.9375 0.8125 2.9375 0 0 Z " fill="#EACEA5" transform="translate(42,103)"/>
<path d="M0 0 C0 0.66 0 1.32 0 2 C-2.2727675 3.49524178 -4.5679943 4.78399715 -7 6 C-7.33 4.68 -7.66 3.36 -8 2 C-4.91190305 0.23537317 -3.76687864 0 0 0 Z " fill="#B9B4B1" transform="translate(121,86)"/>
<path d="M0 0 C4.8 3.32307692 4.8 3.32307692 5.8125 6.75 C5.874375 7.4925 5.93625 8.235 6 9 C5.01 9 4.02 9 3 9 C2 6 1 3 0 0 Z " fill="#F4DBAB" transform="translate(43,67)"/>
<path d="M0 0 C0.66 0 1.32 0 2 0 C2.33 2.31 2.66 4.62 3 7 C2.01 7 1.02 7 0 7 C-1.125 2.25 -1.125 2.25 0 0 Z " fill="#8A847E" transform="translate(157,61)"/>
<path d="M0 0 C0.99 0 1.98 0 3 0 C3.33 2.31 3.66 4.62 4 7 C2.68 7.33 1.36 7.66 0 8 C0 5.36 0 2.72 0 0 Z " fill="#F8D79A" transform="translate(40,55)"/>
<path d="M0 0 C1.98 0 3.96 0 6 0 C5.67 1.65 5.34 3.3 5 5 C2.03 4.505 2.03 4.505 -1 4 C-0.67 2.68 -0.34 1.36 0 0 Z " fill="#846339" transform="translate(137,45)"/>
<path d="M0 0 C4.875 2.75 4.875 2.75 6 5 C4.1875 5.6875 4.1875 5.6875 2 6 C0.25 4.5625 0.25 4.5625 -1 3 C-0.67 2.01 -0.34 1.02 0 0 Z " fill="#CFA66D" transform="translate(126,28)"/>
<path d="M0 0 C-2.38573379 1.89213369 -4.07175348 3.02391783 -7 4 C-7.66 2.68 -8.32 1.36 -9 0 C-3.375 -1.125 -3.375 -1.125 0 0 Z " fill="#D3B480" transform="translate(78,110)"/>
<path d="M0 0 C1.32 0.33 2.64 0.66 4 1 C4 1.99 4 2.98 4 4 C5.32 4.66 6.64 5.32 8 6 C5.69 6 3.38 6 1 6 C0.67 4.02 0.34 2.04 0 0 Z " fill="#F1DDBE" transform="translate(46,104)"/>
<path d="M0 0 C1.875 0.1875 1.875 0.1875 4 1 C5.25 3.5625 5.25 3.5625 6 6 C4.35 5.67 2.7 5.34 1 5 C0.67 3.35 0.34 1.7 0 0 Z " fill="#755B3C" transform="translate(9,75)"/>
<path d="M0 0 C2.66735273 2.48952921 4.55746343 4.63408134 6 8 C3.83125748 7.49396008 2.00032373 7.00016187 0 6 C0 4.02 0 2.04 0 0 Z " fill="#3C3B39" transform="translate(97,73)"/>
<path d="M0 0 C0.99 0 1.98 0 3 0 C4 3 4 3 4 6 C2.35 6 0.7 6 -1 6 C-0.67 4.02 -0.34 2.04 0 0 Z " fill="#9F8764" transform="translate(137,40)"/>
<path d="M0 0 C0.99 0.66 1.98 1.32 3 2 C1.6875 4.5 1.6875 4.5 0 7 C-0.99 7 -1.98 7 -3 7 C-2.690625 6.401875 -2.38125 5.80375 -2.0625 5.1875 C-0.89790296 2.91043228 -0.89790296 2.91043228 0 0 Z " fill="#FADBA1" transform="translate(77,33)"/>
<path d="M0 0 C0.66 0.33 1.32 0.66 2 1 C2 2.98 2 4.96 2 7 C1.01 7 0.02 7 -1 7 C-1.33 5.02 -1.66 3.04 -2 1 C-1.34 0.67 -0.68 0.34 0 0 Z " fill="#C8C4BF" transform="translate(93,86)"/>
<path d="M0 0 C0.99 0 1.98 0 3 0 C3.66 1.32 4.32 2.64 5 4 C2 5 2 5 -0.1875 4.0625 C-0.785625 3.711875 -1.38375 3.36125 -2 3 C-1 1 -1 1 0 0 Z " fill="#977242" transform="translate(129,33)"/>
<path d="M0 0 C3.625 -0.1875 3.625 -0.1875 7 0 C6.67 0.99 6.34 1.98 6 3 C3.36 3 0.72 3 -2 3 C-1.34 2.01 -0.68 1.02 0 0 Z " fill="#846847" transform="translate(67,114)"/>
<path d="M0 0 C3.01327566 1.50663783 3.61056618 4.03166411 5 7 C3.35 6.67 1.7 6.34 0 6 C-1.125 2.25 -1.125 2.25 0 0 Z " fill="#E4BC7D" transform="translate(41,65)"/>
<path d="M0 0 C1.32 1.65 2.64 3.3 4 5 C3.67 5.66 3.34 6.32 3 7 C1.68 6.67 0.36 6.34 -1 6 C-0.67 4.02 -0.34 2.04 0 0 Z " fill="#E1B674" transform="translate(32,30)"/>
<path d="M0 0 C0 0.99 0 1.98 0 3 C-2 4.6875 -2 4.6875 -4 6 C-4 5.01 -4 4.02 -4 3 C-3.34 3 -2.68 3 -2 3 C-2 2.34 -2 1.68 -2 1 C-1.34 0.67 -0.68 0.34 0 0 Z M-5 6 C-4.01 7.485 -4.01 7.485 -3 9 C-3.66 9 -4.32 9 -5 9 C-5 8.01 -5 7.02 -5 6 Z " fill="#EAE8E6" transform="translate(131,67)"/>
<path d="M0 0 C2.52588702 2.36292656 3.88820837 3.66462511 5 7 C2.525 6.01 2.525 6.01 0 5 C0 4.34 0 3.68 0 3 C-0.66 2.34 -1.32 1.68 -2 1 C-1.34 0.67 -0.68 0.34 0 0 Z " fill="#464441" transform="translate(110,65)"/>
<path d="M0 0 C3.3 0 6.6 0 10 0 C6.71299843 1.64350079 4.52069985 2.41321669 1 3 C0.67 2.01 0.34 1.02 0 0 Z " fill="#7F6947" transform="translate(59,63)"/>
<path d="M0 0 C1.32 0.33 2.64 0.66 4 1 C4.33 2.98 4.66 4.96 5 7 C2.525 6.01 2.525 6.01 0 5 C0 3.33333333 0 1.66666667 0 0 Z " fill="#BFA984" transform="translate(132,33)"/>
<path d="M0 0 C0.66 0.33 1.32 0.66 2 1 C0.68 1.99 -0.64 2.98 -2 4 C-2.33 3.34 -2.66 2.68 -3 2 C-2.01 1.34 -1.02 0.68 0 0 Z " fill="#000000" transform="translate(56,74)"/>
<path d="M0 0 C2 1 2 1 2 1 Z " fill="#000000" transform="translate(71,109)"/>
<path d="" fill="#000000" transform="translate(0,0)"/>
<path d="M0 0 C2 1 2 1 2 1 Z " fill="#000000" transform="translate(30,98)"/>
<path d="M0 0 C2 1 2 1 2 1 Z " fill="#000000" transform="translate(27,96)"/>
<path d="M0 0 C2 1 2 1 2 1 Z " fill="#000000" transform="translate(70,94)"/>
<path d="" fill="#000000" transform="translate(0,0)"/>
<path d="M0 0 C2 1 2 1 2 1 Z " fill="#000000" transform="translate(59,72)"/>
<path d="M0 0 C2 1 2 1 2 1 Z " fill="#000000" transform="translate(61,71)"/>
<path d="M0 0 C2 1 2 1 2 1 Z " fill="#000000" transform="translate(129,66)"/>
<path d="M0 0 C2 1 2 1 2 1 Z " fill="#000000" transform="translate(137,63)"/>
<path d="M0 0 C2 1 2 1 2 1 Z " fill="#000000" transform="translate(144,60)"/>
<path d="" fill="#000000" transform="translate(0,0)"/>
<path d="M0 0 C2 1 2 1 2 1 Z " fill="#000000" transform="translate(166,46)"/>
<path d="" fill="#000000" transform="translate(0,0)"/>
<path d="" fill="#000000" transform="translate(0,0)"/>
<path d="" fill="#000000" transform="translate(0,0)"/>
<path d="M0 0 C2 1 2 1 2 1 Z " fill="#000000" transform="translate(78,30)"/>
<path d="M0 0 C2 1 2 1 2 1 Z " fill="#000000" transform="translate(118,26)"/>
<path d="" fill="#000000" transform="translate(0,0)"/>
<path d="" fill="#000000" transform="translate(0,0)"/>
<path d="" fill="#000000" transform="translate(0,0)"/>
<path d="" fill="#000000" transform="translate(0,0)"/>
<path d="" fill="#000000" transform="translate(0,0)"/>
<path d="" fill="#000000" transform="translate(0,0)"/>
<path d="" fill="#000000" transform="translate(0,0)"/>
<path d="" fill="#000000" transform="translate(0,0)"/>
<path d="" fill="#000000" transform="translate(0,0)"/>
<path d="" fill="#000000" transform="translate(0,0)"/>
<path d="" fill="#000000" transform="translate(0,0)"/>
<path d="" fill="#000000" transform="translate(0,0)"/>
<path d="" fill="#000000" transform="translate(0,0)"/>
<path d="" fill="#000000" transform="translate(0,0)"/>
<path d="" fill="#000000" transform="translate(0,0)"/>
<path d="" fill="#000000" transform="translate(0,0)"/>
<path d="" fill="#000000" transform="translate(0,0)"/>
<path d="" fill="#000000" transform="translate(0,0)"/>
<path d="" fill="#000000" transform="translate(0,0)"/>
<path d="" fill="#000000" transform="translate(0,0)"/>
<path d="" fill="#000000" transform="translate(0,0)"/>
<path d="" fill="#000000" transform="translate(0,0)"/>
<path d="" fill="#000000" transform="translate(0,0)"/>
<path d="" fill="#000000" transform="translate(0,0)"/>
<path d="" fill="#000000" transform="translate(0,0)"/>
<path d="" fill="#000000" transform="translate(0,0)"/>
<path d="" fill="#000000" transform="translate(0,0)"/>
<path d="" fill="#000000" transform="translate(0,0)"/>
<path d="" fill="#000000" transform="translate(0,0)"/>
<path d="" fill="#000000" transform="translate(0,0)"/>
<path d="" fill="#000000" transform="translate(0,0)"/>
<path d="" fill="#000000" transform="translate(0,0)"/>
<path d="" fill="#000000" transform="translate(0,0)"/>
<path d="" fill="#000000" transform="translate(0,0)"/>
<path d="" fill="#000000" transform="translate(0,0)"/>
<path d="" fill="#000000" transform="translate(0,0)"/>
<path d="" fill="#000000" transform="translate(0,0)"/>
<path d="" fill="#000000" transform="translate(0,0)"/>
<path d="" fill="#000000" transform="translate(0,0)"/>
<path d="" fill="#000000" transform="translate(0,0)"/>
<path d="" fill="#000000" transform="translate(0,0)"/>
<path d="" fill="#000000" transform="translate(0,0)"/>
<path d="" fill="#000000" transform="translate(0,0)"/>
<path d="" fill="#000000" transform="translate(0,0)"/>
<path d="" fill="#000000" transform="translate(0,0)"/>
<path d="" fill="#000000" transform="translate(0,0)"/>
<path d="" fill="#000000" transform="translate(0,0)"/>
<path d="" fill="#000000" transform="translate(0,0)"/>
<path d="" fill="#000000" transform="translate(0,0)"/>
<path d="" fill="#000000" transform="translate(0,0)"/>
<path d="" fill="#000000" transform="translate(0,0)"/>
<path d="" fill="#000000" transform="translate(0,0)"/>
<path d="" fill="#000000" transform="translate(0,0)"/>
<path d="" fill="#000000" transform="translate(0,0)"/>
<path d="" fill="#000000" transform="translate(0,0)"/>
<path d="" fill="#000000" transform="translate(0,0)"/>
<path d="" fill="#000000" transform="translate(0,0)"/>
<path d="" fill="#000000" transform="translate(0,0)"/>
<path d="" fill="#000000" transform="translate(0,0)"/>
<path d="" fill="#000000" transform="translate(0,0)"/>
<path d="" fill="#000000" transform="translate(0,0)"/>
<path d="" fill="#000000" transform="translate(0,0)"/>
<path d="" fill="#000000" transform="translate(0,0)"/>
<path d="" fill="#000000" transform="translate(0,0)"/>
<path d="" fill="#000000" transform="translate(0,0)"/>
<path d="" fill="#000000" transform="translate(0,0)"/>
<path d="" fill="#000000" transform="translate(0,0)"/>
<path d="" fill="#000000" transform="translate(0,0)"/>
<path d="" fill="#000000" transform="translate(0,0)"/>
<path d="" fill="#000000" transform="translate(0,0)"/>
<path d="" fill="#000000" transform="translate(0,0)"/>
<path d="" fill="#000000" transform="translate(0,0)"/>
<path d="" fill="#000000" transform="translate(0,0)"/>
<path d="" fill="#000000" transform="translate(0,0)"/>
<path d="" fill="#000000" transform="translate(0,0)"/>
<path d="" fill="#000000" transform="translate(0,0)"/>
<path d="" fill="#000000" transform="translate(0,0)"/>
<path d="" fill="#000000" transform="translate(0,0)"/>
<path d="" fill="#000000" transform="translate(0,0)"/>
<path d="" fill="#000000" transform="translate(0,0)"/>
<path d="" fill="#000000" transform="translate(0,0)"/>
<path d="" fill="#000000" transform="translate(0,0)"/>
<path d="" fill="#000000" transform="translate(0,0)"/>
<path d="" fill="#000000" transform="translate(0,0)"/>
<path d="" fill="#000000" transform="translate(0,0)"/>
<path d="" fill="#000000" transform="translate(0,0)"/>
<path d="" fill="#000000" transform="translate(0,0)"/>
<path d="" fill="#000000" transform="translate(0,0)"/>
<path d="" fill="#000000" transform="translate(0,0)"/>
<path d="" fill="#000000" transform="translate(0,0)"/>
<path d="" fill="#000000" transform="translate(0,0)"/>
<path d="" fill="#000000" transform="translate(0,0)"/>
<path d="" fill="#000000" transform="translate(0,0)"/>
<path d="" fill="#000000" transform="translate(0,0)"/>
<path d="" fill="#000000" transform="translate(0,0)"/>
<path d="" fill="#000000" transform="translate(0,0)"/>
<path d="" fill="#000000" transform="translate(0,0)"/>
<path d="" fill="#000000" transform="translate(0,0)"/>
<path d="" fill="#000000" transform="translate(0,0)"/>
<path d="" fill="#000000" transform="translate(0,0)"/>
<path d="" fill="#000000" transform="translate(0,0)"/>
<path d="" fill="#000000" transform="translate(0,0)"/>
<path d="" fill="#000000" transform="translate(0,0)"/>
<path d="" fill="#000000" transform="translate(0,0)"/>
<path d="" fill="#000000" transform="translate(0,0)"/>
<path d="" fill="#000000" transform="translate(0,0)"/>
<path d="" fill="#000000" transform="translate(0,0)"/>
<path d="" fill="#000000" transform="translate(0,0)"/>
<path d="" fill="#000000" transform="translate(0,0)"/>
<path d="" fill="#000000" transform="translate(0,0)"/>
<path d="" fill="#000000" transform="translate(0,0)"/>
<path d="" fill="#000000" transform="translate(0,0)"/>
<path d="" fill="#000000" transform="translate(0,0)"/>
<path d="" fill="#000000" transform="translate(0,0)"/>
<path d="" fill="#000000" transform="translate(0,0)"/>
<path d="" fill="#000000" transform="translate(0,0)"/>
<path d="" fill="#000000" transform="translate(0,0)"/>
<path d="" fill="#000000" transform="translate(0,0)"/>
<path d="" fill="#000000" transform="translate(0,0)"/>
<path d="" fill="#000000" transform="translate(0,0)"/>
<path d="" fill="#000000" transform="translate(0,0)"/>
<path d="" fill="#000000" transform="translate(0,0)"/>
<path d="" fill="#000000" transform="translate(0,0)"/>
<path d="" fill="#000000" transform="translate(0,0)"/>
<path d="" fill="#000000" transform="translate(0,0)"/>
<path d="" fill="#000000" transform="translate(0,0)"/>
<path d="" fill="#000000" transform="translate(0,0)"/>
<path d="" fill="#000000" transform="translate(0,0)"/>
<path d="" fill="#000000" transform="translate(0,0)"/>
<path d="" fill="#000000" transform="translate(0,0)"/>
<path d="" fill="#000000" transform="translate(0,0)"/>
<path d="" fill="#000000" transform="translate(0,0)"/>
<path d="" fill="#000000" transform="translate(0,0)"/>
<path d="" fill="#000000" transform="translate(0,0)"/>
<path d="" fill="#000000" transform="translate(0,0)"/>
<path d="" fill="#000000" transform="translate(0,0)"/>
<path d="" fill="#000000" transform="translate(0,0)"/>
<path d="" fill="#000000" transform="translate(0,0)"/>
<path d="" fill="#000000" transform="translate(0,0)"/>
<path d="" fill="#000000" transform="translate(0,0)"/>
<path d="" fill="#000000" transform="translate(0,0)"/>
<path d="" fill="#000000" transform="translate(0,0)"/>
<path d="" fill="#000000" transform="translate(0,0)"/>
<path d="" fill="#000000" transform="translate(0,0)"/>
<path d="" fill="#000000" transform="translate(0,0)"/>
<path d="" fill="#000000" transform="translate(0,0)"/>
<path d="" fill="#000000" transform="translate(0,0)"/>
<path d="" fill="#000000" transform="translate(0,0)"/>
<path d="" fill="#000000" transform="translate(0,0)"/>
<path d="" fill="#000000" transform="translate(0,0)"/>
<path d="" fill="#000000" transform="translate(0,0)"/>
<path d="" fill="#000000" transform="translate(0,0)"/>
<path d="" fill="#000000" transform="translate(0,0)"/>
<path d="" fill="#000000" transform="translate(0,0)"/>
<path d="" fill="#000000" transform="translate(0,0)"/>
<path d="" fill="#000000" transform="translate(0,0)"/>
<path d="" fill="#000000" transform="translate(0,0)"/>
<path d="" fill="#000000" transform="translate(0,0)"/>
<path d="" fill="#000000" transform="translate(0,0)"/>
<path d="" fill="#000000" transform="translate(0,0)"/>
<path d="" fill="#000000" transform="translate(0,0)"/>
<path d="" fill="#000000" transform="translate(0,0)"/>
<path d="" fill="#000000" transform="translate(0,0)"/>
<path d="" fill="#000000" transform="translate(0,0)"/>
<path d="" fill="#000000" transform="translate(0,0)"/>
<path d="" fill="#000000" transform="translate(0,0)"/>
<path d="" fill="#000000" transform="translate(0,0)"/>
<path d="" fill="#000000" transform="translate(0,0)"/>
<path d="" fill="#000000" transform="translate(0,0)"/>
<path d="" fill="#000000" transform="translate(0,0)"/>
<path d="" fill="#000000" transform="translate(0,0)"/>
<path d="" fill="#000000" transform="translate(0,0)"/>
<path d="" fill="#000000" transform="translate(0,0)"/>
<path d="" fill="#000000" transform="translate(0,0)"/>
<path d="" fill="#000000" transform="translate(0,0)"/>
<path d="" fill="#000000" transform="translate(0,0)"/>
<path d="" fill="#000000" transform="translate(0,0)"/>
<path d="" fill="#000000" transform="translate(0,0)"/>
<path d="" fill="#000000" transform="translate(0,0)"/>
<path d="" fill="#000000" transform="translate(0,0)"/>
<path d="" fill="#000000" transform="translate(0,0)"/>
<path d="" fill="#000000" transform="translate(0,0)"/>
<path d="" fill="#000000" transform="translate(0,0)"/>
<path d="" fill="#000000" transform="translate(0,0)"/>
<path d="" fill="#000000" transform="translate(0,0)"/>
<path d="" fill="#000000" transform="translate(0,0)"/>
<path d="" fill="#000000" transform="translate(0,0)"/>
<path d="" fill="#000000" transform="translate(0,0)"/>
<path d="" fill="#000000" transform="translate(0,0)"/>
<path d="" fill="#000000" transform="translate(0,0)"/>
<path d="" fill="#000000" transform="translate(0,0)"/>
<path d="" fill="#000000" transform="translate(0,0)"/>
<path d="" fill="#000000" transform="translate(0,0)"/>
<path d="" fill="#000000" transform="translate(0,0)"/>
<path d="" fill="#000000" transform="translate(0,0)"/>
<path d="" fill="#000000" transform="translate(0,0)"/>
<path d="" fill="#000000" transform="translate(0,0)"/>
<path d="" fill="#000000" transform="translate(0,0)"/>
<path d="" fill="#000000" transform="translate(0,0)"/>
<path d="" fill="#000000" transform="translate(0,0)"/>
<path d="" fill="#000000" transform="translate(0,0)"/>
<path d="" fill="#000000" transform="translate(0,0)"/>
<path d="" fill="#000000" transform="translate(0,0)"/>
<path d="" fill="#000000" transform="translate(0,0)"/>
<path d="" fill="#000000" transform="translate(0,0)"/>
<path d="" fill="#000000" transform="translate(0,0)"/>
<path d="" fill="#000000" transform="translate(0,0)"/>
<path d="" fill="#000000" transform="translate(0,0)"/>
<path d="" fill="#000000" transform="translate(0,0)"/>
<path d="" fill="#000000" transform="translate(0,0)"/>
<path d="" fill="#000000" transform="translate(0,0)"/>
<path d="" fill="#000000" transform="translate(0,0)"/>
<path d="" fill="#000000" transform="translate(0,0)"/>
<path d="" fill="#000000" transform="translate(0,0)"/>
<path d="" fill="#000000" transform="translate(0,0)"/>
<path d="" fill="#000000" transform="translate(0,0)"/>
<path d="" fill="#000000" transform="translate(0,0)"/>
<path d="" fill="#000000" transform="translate(0,0)"/>
<path d="" fill="#000000" transform="translate(0,0)"/>
<path d="" fill="#000000" transform="translate(0,0)"/>
<path d="" fill="#000000" transform="translate(0,0)"/>
<path d="" fill="#000000" transform="translate(0,0)"/>
<path d="" fill="#000000" transform="translate(0,0)"/>
<path d="" fill="#000000" transform="translate(0,0)"/>
<path d="" fill="#000000" transform="translate(0,0)"/>
<path d="" fill="#000000" transform="translate(0,0)"/>
<path d="" fill="#000000" transform="translate(0,0)"/>
<path d="" fill="#000000" transform="translate(0,0)"/>
<path d="" fill="#000000" transform="translate(0,0)"/>
<path d="" fill="#000000" transform="translate(0,0)"/>
<path d="" fill="#000000" transform="translate(0,0)"/>
<path d="" fill="#000000" transform="translate(0,0)"/>
<path d="" fill="#000000" transform="translate(0,0)"/>
<path d="" fill="#000000" transform="translate(0,0)"/>
<path d="" fill="#000000" transform="translate(0,0)"/>
<path d="" fill="#000000" transform="translate(0,0)"/>
<path d="" fill="#000000" transform="translate(0,0)"/>
<path d="" fill="#000000" transform="translate(0,0)"/>
<path d="" fill="#000000" transform="translate(0,0)"/>
<path d="" fill="#000000" transform="translate(0,0)"/>
<path d="" fill="#000000" transform="translate(0,0)"/>
<path d="" fill="#000000" transform="translate(0,0)"/>
<path d="" fill="#000000" transform="translate(0,0)"/>
<path d="" fill="#000000" transform="translate(0,0)"/>
<path d="" fill="#000000" transform="translate(0,0)"/>
<path d="" fill="#000000" transform="translate(0,0)"/>
<path d="" fill="#000000" transform="translate(0,0)"/>
<path d="" fill="#000000" transform="translate(0,0)"/>
<path d="" fill="#000000" transform="translate(0,0)"/>
</svg>
