<svg width="36" height="36" viewBox="0 0 36 36" fill="none" xmlns="http://www.w3.org/2000/svg">
<path d="M22.5 31.5V9C22.5 7.60218 22.5 6.90327 22.2717 6.35195C21.9672 5.61687 21.3831 5.03285 20.6481 4.72836C20.0967 4.5 19.3979 4.5 18 4.5C16.6021 4.5 15.9033 4.5 15.3519 4.72836C14.6169 5.03285 14.0328 5.61687 13.7284 6.35195C13.5 6.90327 13.5 7.60218 13.5 9V31.5H22.5Z" stroke="#EE9F28" stroke-width="1.5" stroke-linecap="round" stroke-linejoin="round"/>
<path d="M25.5 12H22.5V31.5H25.5C28.3284 31.5 29.7426 31.5 30.6213 30.6213C31.5 29.7426 31.5 28.3284 31.5 25.5V18C31.5 15.1716 31.5 13.7574 30.6213 12.8787C29.7426 12 28.3284 12 25.5 12Z" stroke="#EE9F28" stroke-width="1.5" stroke-linecap="round" stroke-linejoin="round"/>
<path d="M13.5 19.5H10.5C7.67157 19.5 6.25735 19.5 5.37868 20.3787C4.5 21.2574 4.5 22.6716 4.5 25.5C4.5 28.3284 4.5 29.7426 5.37868 30.6213C6.25735 31.5 7.67157 31.5 10.5 31.5H13.5V19.5Z" stroke="#EE9F28" stroke-width="1.5" stroke-linecap="round" stroke-linejoin="round"/>
</svg>
