<svg width="283" height="155" viewBox="0 0 283 155" fill="none" xmlns="http://www.w3.org/2000/svg">
<circle cx="32" cy="32" r="32" transform="matrix(0.866025 0.5 -0.866025 0.5 227.426 85)" fill="#F0AB42"/>
<path d="M188.234 117C188.234 123.248 192.62 128.905 199.713 133V143C192.62 138.905 188.234 133.248 188.234 127V117Z" fill="#B87614"/>
<path d="M199.713 133C215.018 141.837 239.833 141.837 255.138 133V143C239.833 151.837 215.018 151.837 199.713 143V133Z" fill="#CC8F33"/>
<path d="M266.617 117C266.617 123.248 262.231 128.905 255.138 133V143C262.231 138.905 266.617 133.248 266.617 127V117Z" fill="#CC8F33"/>
<circle cx="32" cy="32" r="32" transform="matrix(0.866025 0.5 -0.866025 0.5 227.426 65)" fill="#F0AB42"/>
<path d="M188.234 97C188.234 103.248 192.62 108.905 199.713 113V123C192.62 118.905 188.234 113.248 188.234 107V97Z" fill="#B87614"/>
<path d="M199.713 113C215.018 121.837 239.833 121.837 255.138 113V123C239.833 131.837 215.018 131.837 199.713 123V113Z" fill="#CC8F33"/>
<path d="M266.617 97C266.617 103.248 262.231 108.905 255.138 113V123C262.231 118.905 266.617 113.248 266.617 107V97Z" fill="#CC8F33"/>
<circle cx="32" cy="32" r="32" transform="matrix(0.866025 0.5 -0.866025 0.5 227.426 45)" fill="#F0AB42"/>
<path d="M188.234 77C188.234 83.2484 192.62 88.9052 199.713 93V103C192.62 98.9052 188.234 93.2484 188.234 87V77Z" fill="#B87614"/>
<path d="M199.713 93C215.018 101.837 239.833 101.837 255.138 93V103C239.833 111.837 215.018 111.837 199.713 103V93Z" fill="#CC8F33"/>
<path d="M266.617 77C266.617 83.2484 262.231 88.9052 255.138 93V103C262.231 98.9052 266.617 93.2484 266.617 87V77Z" fill="#CC8F33"/>
<circle cx="32" cy="32" r="32" transform="matrix(0.866025 0.5 -0.866025 0.5 227.426 20)" fill="#F0AB42"/>
<path d="M188.234 52C188.234 58.2484 192.62 63.9052 199.713 68V78C192.62 73.9052 188.234 68.2484 188.234 62V52Z" fill="#B87614"/>
<path d="M199.713 68C215.018 76.8366 239.833 76.8366 255.138 68V78C239.833 86.8366 215.018 86.8366 199.713 78V68Z" fill="#CC8F33"/>
<path d="M266.617 52C266.617 58.2484 262.231 63.9052 255.138 68V78C262.231 73.9052 266.617 68.2484 266.617 62V52Z" fill="#CC8F33"/>
<circle cx="32" cy="32" r="32" transform="matrix(0.866025 0.5 -0.866025 0.5 227.426 0)" fill="#F0AB42"/>
<path d="M188.234 32C188.234 38.2484 192.62 43.9052 199.713 48V58C192.62 53.9052 188.234 48.2484 188.234 42V32Z" fill="#B87614"/>
<path d="M199.713 48C215.018 56.8366 239.833 56.8366 255.138 48V58C239.833 66.8366 215.018 66.8366 199.713 58V48Z" fill="#CC8F33"/>
<path d="M266.617 32C266.617 38.2484 262.231 43.9052 255.138 48V58C262.231 53.9052 266.617 48.2484 266.617 42V32Z" fill="#CC8F33"/>
<circle cx="32" cy="32" r="32" transform="matrix(0.866025 0.5 -0.866025 0.5 144.426 90)" fill="#F0AB42"/>
<path d="M105.234 122C105.234 128.248 109.62 133.905 116.713 138V148C109.62 143.905 105.234 138.248 105.234 132V122Z" fill="#B87614"/>
<path d="M116.713 138C132.018 146.837 156.833 146.837 172.138 138V148C156.833 156.837 132.018 156.837 116.713 148V138Z" fill="#CC8F33"/>
<path d="M183.617 122C183.617 128.248 179.231 133.905 172.138 138V148C179.231 143.905 183.617 138.248 183.617 132V122Z" fill="#CC8F33"/>
<circle cx="32" cy="32" r="32" transform="matrix(0.866025 0.5 -0.866025 0.5 55.4256 89)" fill="#F0AB42"/>
<path d="M16.2338 121C16.2338 127.248 20.6205 132.905 27.7128 137V147C20.6205 142.905 16.2338 137.248 16.2338 131V121Z" fill="#B87614"/>
<path d="M27.7128 137C43.0182 145.837 67.8331 145.837 83.1384 137V147C67.8331 155.837 43.0182 155.837 27.7128 147V137Z" fill="#CC8F33"/>
<path d="M94.6175 121C94.6175 127.248 90.2308 132.905 83.1384 137V147C90.2308 142.905 94.6175 137.248 94.6175 131V121Z" fill="#CC8F33"/>
<circle cx="32" cy="32" r="32" transform="matrix(0.866025 0.5 -0.866025 0.5 144.426 69)" fill="#F0AB42"/>
<path d="M105.234 101C105.234 107.248 109.62 112.905 116.713 117V127C109.62 122.905 105.234 117.248 105.234 111V101Z" fill="#B87614"/>
<path d="M116.713 117C132.018 125.837 156.833 125.837 172.138 117V127C156.833 135.837 132.018 135.837 116.713 127V117Z" fill="#CC8F33"/>
<path d="M183.617 101C183.617 107.248 179.231 112.905 172.138 117V127C179.231 122.905 183.617 117.248 183.617 111V101Z" fill="#CC8F33"/>
<circle cx="32" cy="32" r="32" transform="matrix(0.866025 0.5 -0.866025 0.5 55.4256 68)" fill="#F0AB42"/>
<path d="M16.2338 100C16.2338 106.248 20.6205 111.905 27.7128 116V126C20.6205 121.905 16.2338 116.248 16.2338 110V100Z" fill="#B87614"/>
<path d="M27.7128 116C43.0182 124.837 67.8331 124.837 83.1384 116V126C67.8331 134.837 43.0182 134.837 27.7128 126V116Z" fill="#CC8F33"/>
<path d="M94.6175 100C94.6175 106.248 90.2308 111.905 83.1384 116V126C90.2308 121.905 94.6175 116.248 94.6175 110V100Z" fill="#CC8F33"/>
<circle cx="32" cy="32" r="32" transform="matrix(0.866025 0.5 -0.866025 0.5 144.426 48)" fill="#F0AB42"/>
<path d="M105.234 80C105.234 86.2484 109.62 91.9052 116.713 96V106C109.62 101.905 105.234 96.2484 105.234 90V80Z" fill="#B87614"/>
<path d="M116.713 96C132.018 104.837 156.833 104.837 172.138 96V106C156.833 114.837 132.018 114.837 116.713 106V96Z" fill="#CC8F33"/>
<path d="M183.617 80C183.617 86.2484 179.231 91.9052 172.138 96V106C179.231 101.905 183.617 96.2484 183.617 90V80Z" fill="#CC8F33"/>
<circle cx="32" cy="32" r="32" transform="matrix(0.866025 0.5 -0.866025 0.5 55.4256 47)" fill="#F0AB42"/>
<path d="M16.2338 79C16.2338 85.2484 20.6205 90.9052 27.7128 95V105C20.6205 100.905 16.2338 95.2484 16.2338 89V79Z" fill="#B87614"/>
<path d="M27.7128 95C43.0182 103.837 67.8331 103.837 83.1384 95V105C67.8331 113.837 43.0182 113.837 27.7128 105V95Z" fill="#CC8F33"/>
<path d="M94.6175 79C94.6175 85.2484 90.2308 90.9052 83.1384 95V105C90.2308 100.905 94.6175 95.2484 94.6175 89V79Z" fill="#CC8F33"/>
<circle cx="32" cy="32" r="32" transform="matrix(0.866025 0.5 -0.866025 0.5 144.426 25)" fill="#F0AB42"/>
<path d="M105.234 57C105.234 63.2484 109.62 68.9052 116.713 73V83C109.62 78.9052 105.234 73.2484 105.234 67V57Z" fill="#B87614"/>
<path d="M116.713 73C132.018 81.8366 156.833 81.8366 172.138 73V83C156.833 91.8366 132.018 91.8366 116.713 83V73Z" fill="#CC8F33"/>
<path d="M183.617 57C183.617 63.2484 179.231 68.9052 172.138 73V83C179.231 78.9052 183.617 73.2484 183.617 67V57Z" fill="#CC8F33"/>
</svg>
