<svg width="52" height="52" viewBox="0 0 52 52" fill="none" xmlns="http://www.w3.org/2000/svg">
<path d="M28.1666 23.8333C28.1666 19.0469 24.2863 15.1667 19.4999 15.1667C14.7134 15.1667 10.8333 19.0469 10.8333 23.8333C10.8333 28.6197 14.7134 32.5 19.4999 32.5C24.2863 32.5 28.1666 28.6197 28.1666 23.8333Z" stroke="#EE9F28" stroke-width="1.5" stroke-linecap="round" stroke-linejoin="round"/>
<path d="M23.9169 16.3751C23.8616 15.9802 23.8333 15.5768 23.8333 15.1667C23.8333 10.3802 27.7135 6.5 32.4999 6.5C37.2863 6.5 41.1666 10.3802 41.1666 15.1667C41.1666 19.9531 37.2863 23.8333 32.4999 23.8333C30.8866 23.8333 29.3765 23.3926 28.083 22.625" stroke="#EE9F28" stroke-width="1.5" stroke-linecap="round" stroke-linejoin="round"/>
<path d="M32.5 45.5C32.5 38.3203 26.6797 32.5 19.5 32.5C12.3203 32.5 6.5 38.3203 6.5 45.5" stroke="#EE9F28" stroke-width="1.5" stroke-linecap="round" stroke-linejoin="round"/>
<path d="M45.5 36.8333C45.5 29.6537 39.6797 23.8333 32.5 23.8333" stroke="#EE9F28" stroke-width="1.5" stroke-linecap="round" stroke-linejoin="round"/>
</svg>
